<?xml version="1.0" encoding="UTF-8" standalone="no"?>
<!-- Created with Inkscape (http://www.inkscape.org/) -->

<svg
   xmlns:dc="http://purl.org/dc/elements/1.1/"
   xmlns:cc="http://creativecommons.org/ns#"
   xmlns:rdf="http://www.w3.org/1999/02/22-rdf-syntax-ns#"
   xmlns:svg="http://www.w3.org/2000/svg"
   xmlns="http://www.w3.org/2000/svg"
   xmlns:sodipodi="http://sodipodi.sourceforge.net/DTD/sodipodi-0.dtd"
   xmlns:inkscape="http://www.inkscape.org/namespaces/inkscape"
   width="200mm"
   height="200mm"
   viewBox="0 0 200 200"
   version="1.1"
   id="svg8"
   inkscape:version="0.92.2 5c3e80d, 2017-08-06"
   sodipodi:docname="angry_pixies.svg">
  <defs
     id="defs2">
    <mask
       maskUnits="userSpaceOnUse"
       id="mask1269">
      <g
         id="g1295"
         style="fill:#ffffff"
         transform="translate(0,-1.0833333e-6)">
        <rect
           ry="4.4160657"
           y="226.24486"
           x="0.71112287"
           height="70.044022"
           width="89.367699"
           id="rect1271"
           style="opacity:1;fill:#ffffff;fill-opacity:1;stroke:none;stroke-width:1.42224574;stroke-linejoin:round;stroke-miterlimit:4;stroke-dasharray:none" />
        <text
           xml:space="preserve"
           style="font-style:normal;font-weight:normal;font-size:22.57777786px;line-height:1.25;font-family:sans-serif;letter-spacing:0px;word-spacing:0px;fill:#ffffff;fill-opacity:1;stroke:none;stroke-width:0.26458332"
           x="6.8508935"
           y="290.97516"
           id="text1275"><tspan
             sodipodi:role="line"
             id="tspan1273"
             x="6.8508935"
             y="290.97516"
             style="font-style:normal;font-variant:normal;font-weight:bold;font-stretch:normal;font-size:9.87777805px;font-family:sans-serif;-inkscape-font-specification:'sans-serif Bold';fill:#ffffff;stroke-width:0.26458332">ANGRY PIXIES</tspan></text>
        <text
           id="text1279"
           y="238.24751"
           x="21.75197"
           style="font-style:normal;font-weight:normal;font-size:22.57777786px;line-height:1.25;font-family:sans-serif;letter-spacing:0px;word-spacing:0px;fill:#ffffff;fill-opacity:1;stroke:none;stroke-width:0.26458332"
           xml:space="preserve"><tspan
             style="font-style:normal;font-variant:normal;font-weight:bold;font-stretch:normal;font-size:9.87777805px;font-family:sans-serif;-inkscape-font-specification:'sans-serif Bold';fill:#ffffff;stroke-width:0.26458332"
             y="238.24751"
             x="21.75197"
             id="tspan1277"
             sodipodi:role="line">DANGER</tspan></text>
        <path
           style="opacity:1;fill:#ffffff;fill-opacity:1;stroke:none;stroke-width:1.7021997;stroke-linejoin:round;stroke-miterlimit:4;stroke-dasharray:none"
           d="m 55.660156,142.44922 a 9.9688333,31.255272 0 0 0 -9.96875,31.25586 9.9688333,31.255272 0 0 0 9.96875,31.25586 9.9688333,31.255272 0 0 0 0.08789,-0.0117 v 0.0117 H 281.48047 v -0.31446 a 9.9688333,31.255272 0 0 1 -8.64063,-30.9414 9.9688333,31.255272 0 0 1 8.64063,-30.94141 v -0.31445 h -23.61524 l 0.73438,13.20898 9.49023,-5.19726 -1.91992,28.58203 -2.9375,-19.77149 -9.15234,5.53711 -1.43164,-22.35937 h -0.67188 l -12.80859,11.625 7.11719,4.18164 -15.36524,16.26758 5.98828,-13.55664 -6.55273,-5.42188 11.29687,-12.54101 -0.18554,-0.55469 h -22.32422 l -5.61328,0.77344 2.10937,-0.77344 h -36.13476 c -3.26787,2.13353 -8.18194,3.05555 -14.44727,2.63281 -2.00013,-0.13493 -3.05515,-0.33056 -2.77539,-0.51172 0.24831,-0.16101 1.59627,-0.87642 2.99609,-1.58984 0.34696,-0.17682 0.65299,-0.35437 0.97266,-0.53125 h -14.89844 l 0.33789,0.38086 -2.58593,4.38281 10.80859,1.07813 15.39453,4.22656 -5.05273,5.44726 13.03711,4.78125 -19.7168,-2.71679 4.87305,-5.72461 -9.68165,-2.57031 -3.5996,10.79296 11.29687,12.54102 -6.55078,5.41992 5.98828,13.5586 -15.36523,-16.26758 7.11718,-4.18164 -13.44336,-12.20118 -1.4707,22.93555 -9.15039,-5.53711 -2.9375,19.77149 -1.91992,-28.58203 9.49023,5.19726 1.35352,-24.4043 10.62109,7.34375 1.99805,-7.57617 -10.67578,-0.69531 1.33984,-4.69531 -10.4668,-2.70508 h -32.26367 l 0.69141,12.45117 9.49023,-5.19727 -1.91992,28.58204 -2.93945,-19.77149 -9.150392,5.53711 -1.382812,-21.60156 h -1.556641 l -11.972656,10.86719 7.117187,4.18164 -15.365234,16.26953 5.988281,-13.5586 -6.552734,-5.42187 L 83.6875,142.44922 H 55.861328 l -0.113281,0.0156 a 9.9688333,31.255272 0 0 0 -0.08789,-0.0156 z m 0.08789,0.0156 0.04297,-0.0156 h -0.04297 z m 88.576174,-0.0156 2.64453,0.13672 c -0.17379,-0.0381 -0.33858,-0.0894 -0.50586,-0.13672 z"
           transform="matrix(0.26458333,0,0,0.26458333,0,227)"
           id="path1281"
           inkscape:connector-curvature="0" />
        <path
           style="opacity:1;fill:#ffffff;fill-opacity:1;stroke:none;stroke-width:0.2600517;stroke-linejoin:round;stroke-miterlimit:4;stroke-dasharray:none"
           d="m 75.697823,264.67233 c -1.45679,-1.3e-4 -2.63775,3.70261 -2.63767,8.27007 1e-5,4.56728 1.18094,8.26973 2.63767,8.2696 1.13129,-0.005 2.13574,-2.26986 2.49664,-5.63146 h -2.33805 c 0,0 -0.61025,-1.05062 -0.61338,-2.79437 -0.003,-1.74374 0.80094,-2.48239 0.80094,-2.48239 h 2.15002 c -0.36085,-3.36108 -1.36506,-5.6266 -2.49617,-5.63145 z"
           id="path1283"
           inkscape:connector-curvature="0"
           sodipodi:nodetypes="ccccczccc" />
        <ellipse
           style="opacity:1;fill:#ffffff;fill-opacity:1;stroke:none;stroke-width:0.42544535;stroke-linejoin:round;stroke-miterlimit:4;stroke-dasharray:none"
           id="ellipse1285"
           cx="78.11673"
           cy="272.94946"
           rx="0.58422595"
           ry="2.4860678" />
        <path
           style="fill:#ffffff;stroke-width:0.39255968"
           d="m 226.50586,57.574219 c -0.26986,0.01134 -0.61053,1.058048 -0.99805,3.107422 -0.77764,4.112088 -0.10675,8.333389 1.9043,11.984375 2.3325,4.234733 3.25352,6.576979 3.63477,9.248046 0.43026,3.014854 -0.0743,3.100519 -2.20118,0.376954 -2.33779,-2.993689 -5.76205,-5.895413 -7.6582,-6.490235 -0.94084,-0.295181 -1.87524,-0.512154 -2.07812,-0.484375 -0.20297,0.02646 0.25645,1.387607 1.02343,3.019532 1.80507,3.841587 2.91499,8.715262 2.66992,11.732421 -0.10242,1.262552 -0.30335,2.543731 -0.44531,2.84375 -0.37606,0.795855 -1.76984,0.325247 -4.85937,-1.638671 -1.42311,-0.904593 -2.65477,-1.56073 -2.73633,-1.458985 -0.0816,0.101669 0.38167,2.777452 1.0293,5.947266 0.64747,3.16989 1.12771,5.829021 1.0664,5.908201 -0.0612,0.079 -1.21648,-0.0485 -2.56445,-0.2832 -2.51513,-0.4382 -6.74161,-0.35002 -6.67188,0.13867 0.0227,0.15043 0.38378,0.89497 0.80274,1.6582 0.41896,0.76328 1.06731,2.63554 1.4414,4.16016 0.91114,3.71365 2.63154,8.89721 3.8086,11.4668 2.29066,5.00061 8.67757,7.38312 18.08984,6.74804 2.00013,-0.13493 3.05515,-0.33056 2.77539,-0.51171 -0.24831,-0.16101 -1.59627,-0.87643 -2.99609,-1.58985 -4.66039,-2.37505 -6.80478,-4.6959 -7.93164,-8.58594 -0.61546,-2.12439 -0.62494,-2.12257 2.11719,-0.46093 l 0.98828,0.59961 -0.48828,-2.83985 c -0.71683,-4.16742 -0.17247,-4.41748 2.43945,-1.12109 2.45938,3.10382 4.85891,5.57499 5.34375,5.50586 0.54962,-0.0786 -0.33619,-4.97818 -1.28516,-7.10938 -1.35398,-3.04127 -2.1273,-6.21995 -1.5332,-6.30469 0.84892,-0.12132 2.99396,1.09902 4.70117,2.67383 l 1.64258,1.51563 0.45508,-1.5586 c 0.25058,-0.85598 0.42402,-3.01782 0.38672,-4.80664 -0.0949,-4.552437 -0.0736,-4.609544 1.25781,-3.525387 1.86312,1.517216 3.01961,4.480307 3.29101,8.429687 0.12964,1.88663 0.13279,4.11 0.004,4.93945 -0.12737,0.82946 -0.12976,1.57883 -0.004,1.66602 0.12435,0.0873 0.92968,-0.64873 1.78907,-1.63477 0.85931,-0.98611 1.69773,-1.81163 1.86328,-1.83593 0.53794,-0.0767 0.17023,2.81095 -0.5918,4.65234 -0.40872,0.98751 -0.69072,1.83068 -0.625,1.87305 0.0658,0.0423 1.16192,-0.23255 2.43555,-0.61133 1.2737,-0.37875 2.47614,-0.66212 2.66992,-0.63086 0.86918,0.14702 -1.10787,4.25424 -3.16016,6.56641 l -2.17773,2.45507 2.58398,4.38086 -10.80664,1.08008 -15.39648,4.22461 5.05469,5.44727 -10.92774,4.00781 h 3.50391 l 14.10351,-1.94336 -4.87304,-5.72461 9.68164,-2.57031 3.41211,10.23828 h 10.50976 l 0.63477,-0.57617 0.0371,0.57617 h 5.21679 l -0.62109,-11.19531 -10.61914,7.34375 -1.99805,-7.57618 10.67383,-0.69531 -1.33789,-4.69531 13.45117,-3.47656 -17.5625,0.91015 c 1.12192,-0.24567 2.08562,-0.6787 3.16992,-1.38672 5.39339,-3.52161 8.57502,-9.9315 9.31055,-18.75976 0.15118,-1.81542 0.17853,-4.054132 0.0625,-4.976564 l -0.20898,-1.679687 -1.49024,2.609375 c -1.86134,3.260486 -4.04776,6.009556 -4.87109,6.126956 -0.45717,0.0654 -0.27639,-0.56039 0.66211,-2.30078 0.70892,-1.31486 1.53724,-3.596226 1.84179,-5.070317 0.51153,-2.475931 0.48796,-2.897446 -0.32226,-5.519531 -1.07724,-3.486917 -2.66777,-6.824036 -3.01367,-6.322266 -0.14098,0.204473 -0.37214,1.167006 -0.51172,2.136719 -0.40475,2.81503 -1.248,5.018233 -2.33008,6.083984 l -1.00391,0.988282 -0.85546,-4.232422 c -1.46703,-7.272643 -3.42936,-12.428525 -5.4629,-14.341797 -0.61715,-0.580725 -0.63633,-0.303383 -0.17968,2.734375 0.44749,2.976151 0.41012,3.66276 -0.31446,5.707031 -0.45286,1.277858 -1.03771,2.353813 -1.29687,2.390625 -0.30274,0.04346 -0.73924,-1.094157 -1.22461,-3.183594 -1.53853,-6.623622 -2.65372,-8.655435 -7.18359,-13.078125 -4.50637,-4.399672 -7.20319,-8.699989 -7.71875,-12.3125 -0.10621,-0.745209 -0.24239,-1.110621 -0.4043,-1.103515 z m 8.88672,21.220703 c 0.0591,-0.0073 0.1205,-0.0058 0.18359,0.0059 0.30274,0.05594 0.64953,0.330236 1.01758,0.830078 1.55471,2.112416 1.6753,5.153758 0.27344,6.900391 -0.48246,0.601096 -0.61686,0.539852 -1.34571,-0.619141 -0.94132,-1.496919 -1.30096,-3.522217 -0.99414,-5.601562 0.14055,-0.951714 0.45132,-1.464522 0.86524,-1.515625 z"
           transform="matrix(0.26458333,0,0,0.26458333,0,227)"
           id="path1287"
           inkscape:connector-curvature="0" />
        <path
           style="fill:#ffffff;stroke-width:0.39255968"
           d="m 68.724609,56.816406 c -0.269858,0.01134 -0.610532,1.060002 -0.998047,3.109375 -0.777637,4.112051 -0.106751,8.333427 1.904297,11.984375 2.33246,4.234734 3.253525,6.575026 3.634766,9.246094 0.430261,3.014854 -0.07428,3.100518 -2.201172,0.376953 -2.337789,-2.99365 -5.762052,-5.895412 -7.658203,-6.490234 -0.940838,-0.295181 -1.87524,-0.512155 -2.078125,-0.484375 -0.202961,0.02646 0.256458,1.387644 1.023437,3.019531 1.805065,3.841625 2.914987,8.717216 2.669922,11.734375 -0.102425,1.262551 -0.303353,2.54174 -0.445312,2.841797 -0.376063,0.795817 -1.769838,0.325246 -4.859375,-1.638672 -1.423106,-0.904592 -2.654804,-1.560729 -2.736328,-1.458984 -0.08164,0.101669 0.381675,2.777451 1.029297,5.947265 0.64747,3.169852 1.125757,5.829024 1.064453,5.908204 -0.06123,0.079 -1.214532,-0.0485 -2.5625,-0.2832 -2.515125,-0.43824 -6.741608,-0.35002 -6.671875,0.13867 0.02268,0.15042 0.383773,0.89688 0.802734,1.66015 0.418961,0.76324 1.067309,2.63554 1.441406,4.16016 0.911131,3.71365 2.631536,8.89526 3.808594,11.46484 2.290658,5.00062 8.67562,7.38313 18.087891,6.74805 2.000126,-0.13493 3.057104,-0.33056 2.777343,-0.51172 -0.248314,-0.16101 -1.598223,-0.87642 -2.998046,-1.58984 -4.660385,-2.37506 -6.802822,-4.69594 -7.929688,-8.58594 -0.615458,-2.1244 -0.624935,-2.12257 2.117188,-0.46094 l 0.988281,0.59961 -0.488281,-2.83984 c -0.716826,-4.16738 -0.172465,-4.41748 2.439453,-1.12109 2.459376,3.10386 4.858912,5.57494 5.34375,5.50586 0.549619,-0.0786 -0.336193,-4.97619 -1.285157,-7.10743 -1.353977,-3.04123 -2.127307,-6.21995 -1.533203,-6.30468 0.84892,-0.12133 2.993997,1.09709 4.701172,2.67187 l 1.642578,1.51563 0.455079,-1.55665 c 0.250204,-0.85598 0.424022,-3.01981 0.386718,-4.80859 -0.09487,-4.55244 -0.07559,-4.609585 1.25586,-3.525389 1.863118,1.517215 3.021561,4.480349 3.292968,8.429689 0.129638,1.88666 0.130835,4.11 0.002,4.93945 -0.127371,0.82949 -0.127812,1.57886 -0.002,1.66602 0.124347,0.0873 0.929674,-0.64873 1.789063,-1.63477 0.859313,-0.98612 1.695785,-1.81163 1.861328,-1.83594 0.53794,-0.0767 0.172185,2.81096 -0.589844,4.65235 -0.408718,0.98747 -0.690726,1.83068 -0.625,1.87304 0.06576,0.0423 1.161922,-0.23254 2.435547,-0.61132 1.273701,-0.37875 2.476146,-0.66017 2.669922,-0.62891 0.86914,0.14702 -1.109826,4.25424 -3.162109,6.56641 l -2.175782,2.45312 2.583985,4.38086 -10.806641,1.08008 -15.396484,4.22656 5.052734,5.44531 -12.992187,4.76563 h 0.07031 l 19.601563,-2.70117 -4.871094,-5.72461 9.681641,-2.57032 3.597656,10.79297 -0.183594,0.20313 h 9.671875 l 1.470703,-1.33399 0.08594,1.33399 h 5.210934 l -0.664059,-11.95313 -10.621094,7.34375 -1.996094,-7.57617 10.673828,-0.69531 -1.33789,-4.69336 13.451169,-3.47852 -17.564451,0.91016 c 1.121915,-0.24567 2.087567,-0.6787 3.171875,-1.38672 5.393386,-3.52165 8.575016,-9.92955 9.310546,-18.75781 v -0.002 c 0.15118,-1.81546 0.17853,-4.054135 0.0625,-4.976566 l -0.20898,-1.677735 -1.49024,2.607422 c -1.86134,3.260489 -4.047759,6.011549 -4.871091,6.128909 -0.457172,0.0654 -0.276385,-0.56039 0.662109,-2.30078 0.708888,-1.3149 1.537242,-3.598216 1.841802,-5.072269 0.51152,-2.475931 0.48795,-2.897484 -0.32227,-5.519532 -1.077242,-3.486916 -2.667732,-6.824073 -3.013672,-6.322265 -0.140977,0.204472 -0.372179,1.167005 -0.511719,2.136718 -0.40475,2.81503 -1.247962,5.018196 -2.330078,6.083985 l -1.003907,0.988281 -0.855468,-4.232422 c -1.467024,-7.272642 -3.431307,-12.428524 -5.464844,-14.341797 -0.617159,-0.580724 -0.634377,-0.303382 -0.177734,2.734375 0.447458,2.976152 0.41012,3.662761 -0.314454,5.707032 -0.4529,1.277858 -1.037712,2.353812 -1.296875,2.390625 -0.30274,0.04346 -0.739242,-1.09412 -1.224609,-3.183594 -1.538532,-6.623622 -2.653717,-8.655435 -7.183594,-13.078125 -4.506406,-4.399673 -7.203184,-8.69999 -7.71875,-12.3125 -0.106204,-0.74521 -0.242382,-1.110659 -0.404297,-1.103516 z m 8.886719,21.220703 c 0.05913,-0.0073 0.120504,-0.0058 0.183594,0.0059 0.30274,0.05594 0.649565,0.332226 1.017578,0.832031 1.554746,2.112416 1.67534,5.15372 0.273438,6.900391 -0.482457,0.601096 -0.61686,0.539889 -1.345704,-0.619141 -0.941329,-1.496882 -1.302915,-3.524133 -0.996093,-5.603516 0.140551,-0.95168 0.453268,-1.46454 0.867187,-1.515625 z"
           transform="matrix(0.26458333,0,0,0.26458333,0,227)"
           id="path1289"
           inkscape:connector-curvature="0" />
        <path
           style="color:#000000;font-style:normal;font-variant:normal;font-weight:normal;font-stretch:normal;font-size:medium;line-height:normal;font-family:sans-serif;font-variant-ligatures:normal;font-variant-position:normal;font-variant-caps:normal;font-variant-numeric:normal;font-variant-alternates:normal;font-feature-settings:normal;text-indent:0;text-align:start;text-decoration:none;text-decoration-line:none;text-decoration-style:solid;text-decoration-color:#000000;letter-spacing:normal;word-spacing:normal;text-transform:none;writing-mode:lr-tb;direction:ltr;text-orientation:mixed;dominant-baseline:auto;baseline-shift:baseline;text-anchor:start;white-space:normal;shape-padding:0;clip-rule:nonzero;display:inline;overflow:visible;visibility:visible;opacity:1;isolation:auto;mix-blend-mode:normal;color-interpolation:sRGB;color-interpolation-filters:linearRGB;solid-color:#000000;solid-opacity:1;vector-effect:none;fill:#ffffff;fill-opacity:1;fill-rule:nonzero;stroke:none;stroke-width:1.42224574;stroke-linecap:butt;stroke-linejoin:round;stroke-miterlimit:4;stroke-dasharray:none;stroke-dashoffset:0;stroke-opacity:1;color-rendering:auto;image-rendering:auto;shape-rendering:auto;text-rendering:auto;enable-background:accumulate"
           d="M 5.1269531,225.5332 C 2.2987911,225.5332 0,227.83199 0,230.66016 v 61.21289 C 0,294.70121 2.2987911,297 5.1269531,297 H 85.662109 c 2.828162,0 5.126953,-2.29879 5.126953,-5.12695 v -61.21289 c 0,-2.82817 -2.298791,-5.12696 -5.126953,-5.12696 z m 0,1.42188 H 85.662109 c 2.064839,0 3.705079,1.64024 3.705079,3.70508 v 61.21289 c 0,2.06484 -1.64024,3.70507 -3.705079,3.70507 H 5.1269531 c -2.0648388,0 -3.7050781,-1.64023 -3.7050781,-3.70507 v -61.21289 c 0,-2.06484 1.6402393,-3.70508 3.7050781,-3.70508 z"
           id="path1291"
           inkscape:connector-curvature="0" />
        <path
           style="fill:#ffffff;stroke-width:0.39255968"
           d="m 170.3125,77.097656 c -0.16123,-0.0047 -0.29648,0.36069 -0.40234,1.103516 -0.51557,3.61251 -3.21239,7.912827 -7.71875,12.3125 -4.52988,4.42269 -5.64507,6.454503 -7.1836,13.078128 -0.48536,2.08943 -0.92382,3.22706 -1.22656,3.18359 -0.25916,-0.0368 -0.84206,-1.11277 -1.29492,-2.39062 -0.72458,-2.04428 -0.76195,-2.73088 -0.31445,-5.707036 0.45664,-3.037757 0.43747,-3.315099 -0.17969,-2.734375 -2.03354,1.913273 -3.99782,7.069151 -5.46485,14.341801 l -0.85351,4.23242 -1.00586,-0.99024 c -1.08208,-1.06575 -1.92338,-3.267 -2.32813,-6.08203 -0.13957,-0.96971 -0.37074,-1.93224 -0.51172,-2.13672 -0.3459,-0.50177 -1.93643,2.83535 -3.01367,6.32227 -0.81021,2.62208 -0.83574,3.0436 -0.32422,5.51953 0.30456,1.47409 1.13288,3.75545 1.8418,5.07031 0.9385,1.7404 1.11928,2.36617 0.66211,2.30078 -0.82333,-0.11739 -3.0078,-2.86842 -4.86914,-6.1289 l -1.49023,-2.60742 -0.21094,1.67773 c -0.11603,0.92243 -0.0887,3.16114 0.0625,4.97656 v 0.002 c 0.73553,8.82825 3.91716,15.23815 9.31055,18.75976 0.91634,0.59835 1.75339,0.98988 2.66601,1.24805 h 4.88867 l -1.83984,-2.07227 c -2.05228,-2.31216 -4.02934,-6.41938 -3.16016,-6.5664 0.19378,-0.0313 1.39427,0.25211 2.66797,0.63086 1.27363,0.37878 2.36978,0.65366 2.43555,0.61132 0.0657,-0.0424 -0.21628,-0.88553 -0.625,-1.87304 -0.76203,-1.84139 -1.12779,-4.72907 -0.58985,-4.65235 0.16555,0.0243 1.00397,0.84982 1.86329,1.83594 0.85938,0.98604 1.66471,1.72207 1.78906,1.63477 0.12586,-0.0872 0.12346,-0.83656 -0.004,-1.66602 -0.12888,-0.82945 -0.12573,-3.05283 0.004,-4.93945 0.27141,-3.94938 1.4279,-6.91247 3.29101,-8.42969 1.33146,-1.08416 1.35073,-1.02705 1.25586,3.52539 -0.0373,1.78881 0.13809,3.95065 0.38867,4.80664 l 0.45313,1.5586 1.64453,-1.51758 c 1.70721,-1.57482 3.8503,-2.7932 4.69922,-2.67188 0.5941,0.0847 -0.17727,3.26342 -1.53125,6.30469 -0.94896,2.1312 -1.83478,7.03076 -1.28516,7.10937 0.48484,0.0691 2.88242,-2.40203 5.3418,-5.50585 2.61192,-3.29639 3.15823,-3.04633 2.44141,1.12109 l -0.48828,2.83984 0.98632,-0.59961 c 2.74213,-1.66163 2.73265,-1.66346 2.11719,0.46094 -1.04297,3.60044 -2.98279,5.85565 -6.95703,8.05469 h 13.25391 c 1.64137,-1.07163 2.87475,-2.44331 3.64062,-4.11524 1.17706,-2.56958 2.89942,-7.75314 3.81055,-11.46679 0.3741,-1.52463 1.02244,-3.39688 1.4414,-4.16016 0.41897,-0.76324 0.77811,-1.50973 0.80079,-1.66015 0.0697,-0.4887 -4.15675,-0.57492 -6.67188,-0.13672 -1.34797,0.2347 -2.50127,0.36219 -2.5625,0.2832 -0.0613,-0.0792 0.41894,-2.73831 1.06641,-5.9082 0.64762,-3.16982 1.10898,-5.8456 1.02734,-5.94727 -0.0816,-0.10174 -1.31127,0.55439 -2.73437,1.45899 -3.08954,1.96391 -4.48332,2.43452 -4.85938,1.63867 -0.14196,-0.30002 -0.34289,-1.5812 -0.44531,-2.84375 -0.24507,-3.01716 0.8629,-7.89084 2.66797,-11.732425 0.76698,-1.631924 1.22835,-2.995028 1.02539,-3.021484 -0.20289,-0.02778 -1.13729,0.191147 -2.07813,0.486328 -1.89615,0.594822 -5.32236,3.496546 -7.66015,6.490231 -2.1269,2.72357 -2.62948,2.6379 -2.19922,-0.37695 0.38124,-2.671068 1.30031,-5.013313 3.63281,-9.248047 2.01105,-3.650986 2.68193,-7.872287 1.9043,-11.984375 -0.3868,-2.045578 -0.72648,-3.092273 -0.9961,-3.107422 z m -8.88672,21.220703 c 0.41392,0.0511 0.72664,0.563912 0.86719,1.515625 0.30682,2.079346 -0.0528,4.104646 -0.99414,5.601566 -0.72885,1.15899 -0.86325,1.22023 -1.34571,0.61914 -1.40186,-1.74664 -1.28322,-4.78798 0.27149,-6.900393 0.36805,-0.499843 0.71484,-0.774141 1.01758,-0.830078 0.0631,-0.01162 0.12446,-0.01316 0.18359,-0.0059 z m -32.02148,43.359371 2.98632,0.77149 h 11.9336 z"
           transform="matrix(0.26458333,0,0,0.26458333,0,227)"
           id="path1293"
           inkscape:connector-curvature="0" />
      </g>
    </mask>
  </defs>
  <sodipodi:namedview
     id="base"
     pagecolor="#ffffff"
     bordercolor="#666666"
     borderopacity="1.0"
     inkscape:pageopacity="0.0"
     inkscape:pageshadow="2"
     inkscape:zoom="1"
     inkscape:cx="106.43622"
     inkscape:cy="409.38855"
     inkscape:document-units="mm"
     inkscape:current-layer="layer1"
     showgrid="false"
     inkscape:window-width="1920"
     inkscape:window-height="983"
     inkscape:window-x="0"
     inkscape:window-y="1"
     inkscape:window-maximized="1"
     showguides="true"
     inkscape:guide-bbox="true" />
  <metadata
     id="metadata5">
    <rdf:RDF>
      <cc:Work
         rdf:about="">
        <dc:format>image/svg+xml</dc:format>
        <dc:type
           rdf:resource="http://purl.org/dc/dcmitype/StillImage" />
        <dc:title></dc:title>
      </cc:Work>
    </rdf:RDF>
  </metadata>
  <g
     inkscape:label="Layer 1"
     inkscape:groupmode="layer"
     id="layer1"
     transform="translate(0,-97)">
    <g
       id="g1699">
      <rect
         inkscape:export-ydpi="96"
         inkscape:export-xdpi="96"
         ry="4.2977052"
         y="115.98724"
         x="8.0112715"
         height="71.467003"
         width="90.789001"
         id="rect1313"
         style="opacity:1;fill:#ffffff;fill-opacity:1;stroke:none;stroke-width:1.46529353;stroke-linejoin:round;stroke-miterlimit:4;stroke-dasharray:none" />
      <path
         id="rect1141"
         transform="matrix(0.26458333,0,0,0.26458333,0,97)"
         d="M 30.279297 297.41992 L 30.279297 308.67578 L 35.652344 314.04883 L 35.652344 302.79297 L 30.279297 297.41992 z M 58.103516 336.5 L 63.476562 341.87305 L 74.732422 341.87305 L 69.359375 336.5 L 58.103516 336.5 z "
         style="opacity:1;fill:#ff0000;fill-opacity:1;stroke:none;stroke-width:4.50047827;stroke-linejoin:round;stroke-miterlimit:4;stroke-dasharray:none" />
      <path
         id="rect1143"
         transform="matrix(0.26458333,0,0,0.26458333,0,97)"
         d="M 30.279297 275.95703 L 30.279297 287.21289 L 35.652344 292.58594 L 35.652344 281.33008 L 30.279297 275.95703 z M 79.566406 336.5 L 84.939453 341.87305 L 96.195312 341.87305 L 90.822266 336.5 L 79.566406 336.5 z "
         style="opacity:1;fill:#ff0000;fill-opacity:1;stroke:none;stroke-width:4.50047827;stroke-linejoin:round;stroke-miterlimit:4;stroke-dasharray:none" />
      <path
         id="rect1145"
         transform="matrix(0.26458333,0,0,0.26458333,0,97)"
         d="M 30.279297 254.49219 L 30.279297 265.75 L 35.652344 271.12305 L 35.652344 259.86523 L 30.279297 254.49219 z M 101.0293 336.5 L 106.40234 341.87305 L 117.66016 341.87305 L 112.28711 336.5 L 101.0293 336.5 z "
         style="opacity:1;fill:#ff0000;fill-opacity:1;stroke:none;stroke-width:4.50047827;stroke-linejoin:round;stroke-miterlimit:4;stroke-dasharray:none" />
      <path
         id="rect1147"
         transform="matrix(0.26458333,0,0,0.26458333,0,97)"
         d="M 30.279297 233.0293 L 30.279297 244.28516 L 35.652344 249.6582 L 35.652344 238.40234 L 30.279297 233.0293 z M 122.49414 336.5 L 127.86719 341.87305 L 139.12305 341.87305 L 133.75 336.5 L 122.49414 336.5 z "
         style="opacity:1;fill:#ff0000;fill-opacity:1;stroke:none;stroke-width:4.50047827;stroke-linejoin:round;stroke-miterlimit:4;stroke-dasharray:none" />
      <path
         id="rect1149"
         transform="matrix(0.26458333,0,0,0.26458333,0,97)"
         d="M 30.279297 211.56641 L 30.279297 222.82227 L 35.652344 228.19531 L 35.652344 216.93945 L 30.279297 211.56641 z M 143.95703 336.5 L 149.33008 341.87305 L 160.58594 341.87305 L 155.21289 336.5 L 143.95703 336.5 z "
         style="opacity:1;fill:#ff0000;fill-opacity:1;stroke:none;stroke-width:4.50047827;stroke-linejoin:round;stroke-miterlimit:4;stroke-dasharray:none" />
      <path
         id="rect1151"
         transform="matrix(0.26458333,0,0,0.26458333,0,97)"
         d="M 30.279297 190.10352 L 30.279297 201.35938 L 35.652344 206.73242 L 35.652344 195.47656 L 30.279297 190.10352 z M 165.41992 336.5 L 170.79297 341.87305 L 182.04883 341.87305 L 176.67578 336.5 L 165.41992 336.5 z "
         style="opacity:1;fill:#ff0000;fill-opacity:1;stroke:none;stroke-width:4.50047827;stroke-linejoin:round;stroke-miterlimit:4;stroke-dasharray:none" />
      <path
         id="rect1153"
         transform="matrix(0.26458333,0,0,0.26458333,0,97)"
         d="M 30.279297 168.63867 L 30.279297 179.89648 L 35.652344 185.26953 L 35.652344 174.01172 L 30.279297 168.63867 z M 186.88281 336.5 L 192.25586 341.87305 L 203.51367 341.87305 L 198.14062 336.5 L 186.88281 336.5 z "
         style="opacity:1;fill:#ff0000;fill-opacity:1;stroke:none;stroke-width:4.50047827;stroke-linejoin:round;stroke-miterlimit:4;stroke-dasharray:none" />
      <path
         id="rect1155"
         transform="matrix(0.26458333,0,0,0.26458333,0,97)"
         d="M 30.279297 147.17578 L 30.279297 158.43164 L 35.652344 163.80469 L 35.652344 152.54883 L 30.279297 147.17578 z M 208.34766 336.5 L 213.7207 341.87305 L 224.97656 341.87305 L 219.60352 336.5 L 208.34766 336.5 z "
         style="opacity:1;fill:#ff0000;fill-opacity:1;stroke:none;stroke-width:4.50047827;stroke-linejoin:round;stroke-miterlimit:4;stroke-dasharray:none" />
      <path
         id="rect1157"
         transform="matrix(0.26458333,0,0,0.26458333,0,97)"
         d="M 30.279297 125.71289 L 30.279297 136.96875 L 35.652344 142.3418 L 35.652344 131.08594 L 30.279297 125.71289 z M 229.81055 336.5 L 235.18359 341.87305 L 246.43945 341.87305 L 241.06641 336.5 L 229.81055 336.5 z "
         style="opacity:1;fill:#ff0000;fill-opacity:1;stroke:none;stroke-width:4.50047827;stroke-linejoin:round;stroke-miterlimit:4;stroke-dasharray:none" />
      <path
         id="rect1159"
         transform="matrix(0.26458333,0,0,0.26458333,0,97)"
         d="M 30.279297 104.25 L 30.279297 115.50586 L 35.652344 120.87891 L 35.652344 109.62305 L 30.279297 104.25 z M 251.27344 336.5 L 256.64648 341.87305 L 267.90234 341.87305 L 262.5293 336.5 L 251.27344 336.5 z "
         style="opacity:1;fill:#ff0000;fill-opacity:1;stroke:none;stroke-width:4.50047827;stroke-linejoin:round;stroke-miterlimit:4;stroke-dasharray:none" />
      <path
         id="rect1161"
         transform="matrix(0.26458333,0,0,0.26458333,0,97)"
         d="M 31.613281 84.119141 C 30.762321 86.299227 30.279297 88.66199 30.279297 91.140625 L 30.279297 94.042969 L 35.652344 99.416016 L 35.652344 91.140625 C 35.652344 90.207986 35.746784 89.300834 35.916016 88.421875 L 31.613281 84.119141 z M 272.73633 336.5 L 278.10938 341.87305 L 289.36523 341.87305 L 283.99219 336.5 L 272.73633 336.5 z "
         style="opacity:1;fill:#ff0000;fill-opacity:1;stroke:none;stroke-width:4.50047827;stroke-linejoin:round;stroke-miterlimit:4;stroke-dasharray:none" />
      <path
         id="rect1163"
         transform="matrix(0.26458333,0,0,0.26458333,0,97)"
         d="M 42.210938 73.253906 C 39.677032 74.311967 37.425951 75.902328 35.570312 77.871094 L 39.339844 81.640625 C 41.205695 79.612267 43.664468 78.147926 46.464844 77.507812 L 42.210938 73.253906 z M 294.19922 336.5 L 299.57227 341.87305 L 310.83008 341.87305 L 305.45703 336.5 L 294.19922 336.5 z "
         style="opacity:1;fill:#ff0000;fill-opacity:1;stroke:none;stroke-width:4.50047827;stroke-linejoin:round;stroke-miterlimit:4;stroke-dasharray:none" />
      <path
         id="rect1165"
         transform="matrix(0.26458333,0,0,0.26458333,0,97)"
         d="M 50.927734 71.763672 L 56.300781 77.136719 L 67.556641 77.136719 L 62.183594 71.763672 L 50.927734 71.763672 z M 315.66406 336.5 L 321.03711 341.87305 L 332.29297 341.87305 L 326.91992 336.5 L 315.66406 336.5 z "
         style="opacity:1;fill:#ff0000;fill-opacity:1;stroke:none;stroke-width:4.50047827;stroke-linejoin:round;stroke-miterlimit:4;stroke-dasharray:none" />
      <path
         id="rect1167"
         transform="matrix(0.26458333,0,0,0.26458333,0,97)"
         d="M 72.390625 71.763672 L 77.763672 77.136719 L 89.019531 77.136719 L 83.646484 71.763672 L 72.390625 71.763672 z M 337.12695 336.5 L 342.5 341.87305 L 353.75586 341.87305 L 348.38281 336.5 L 337.12695 336.5 z "
         style="opacity:1;fill:#ff0000;fill-opacity:1;stroke:none;stroke-width:4.50047827;stroke-linejoin:round;stroke-miterlimit:4;stroke-dasharray:none" />
      <path
         id="rect1169"
         transform="matrix(0.26458333,0,0,0.26458333,0,97)"
         d="M 93.853516 71.763672 L 99.226562 77.136719 L 110.48242 77.136719 L 105.10938 71.763672 L 93.853516 71.763672 z M 364.82617 331.48047 C 363.08139 333.58 360.72598 335.14377 358.01953 335.92969 L 362.16016 340.07031 C 364.63215 338.92405 366.8193 337.27476 368.5957 335.25 L 364.82617 331.48047 z "
         style="opacity:1;fill:#ff0000;fill-opacity:1;stroke:none;stroke-width:4.50047827;stroke-linejoin:round;stroke-miterlimit:4;stroke-dasharray:none" />
      <path
         id="rect1171"
         transform="matrix(0.26458333,0,0,0.26458333,0,97)"
         d="M 115.31641 71.763672 L 120.68945 77.136719 L 131.94727 77.136719 L 126.57422 71.763672 L 115.31641 71.763672 z M 368.04492 313.23438 L 368.04492 322.49609 C 368.04492 323.12964 367.98941 323.74749 367.91016 324.35742 L 372.34766 328.79492 C 373.02984 326.81703 373.41797 324.70354 373.41797 322.49609 L 373.41797 318.60742 L 368.04492 313.23438 z "
         style="opacity:1;fill:#ff0000;fill-opacity:1;stroke:none;stroke-width:4.50047827;stroke-linejoin:round;stroke-miterlimit:4;stroke-dasharray:none" />
      <path
         id="rect1173"
         transform="matrix(0.26458333,0,0,0.26458333,0,97)"
         d="M 30.279297 318.88281 L 30.279297 322.49609 C 30.279297 326.72921 31.656922 330.63599 33.966797 333.82617 L 38.326172 338.18555 C 41.516356 340.49542 45.423134 341.87305 49.65625 341.87305 L 53.269531 341.87305 L 47.755859 336.35938 C 41.494448 335.52808 36.624263 330.65789 35.792969 324.39648 L 30.279297 318.88281 z "
         style="opacity:1;fill:#ff0000;fill-opacity:1;stroke:none;stroke-width:4.50047827;stroke-linejoin:round;stroke-miterlimit:4;stroke-dasharray:none" />
      <path
         id="rect1175"
         transform="matrix(0.26458333,0,0,0.26458333,0,97)"
         d="M 351.41406 71.763672 L 357.13281 77.482422 C 362.4246 78.651236 366.53319 82.758658 367.70117 88.050781 L 373.41797 93.767578 L 373.41797 91.140625 C 373.41797 80.451479 364.73014 71.763672 354.04102 71.763672 L 351.41406 71.763672 z "
         style="opacity:1;fill:#ff0000;fill-opacity:1;stroke:none;stroke-width:4.50047827;stroke-linejoin:round;stroke-miterlimit:4;stroke-dasharray:none" />
      <path
         id="rect1177"
         transform="matrix(0.26458333,0,0,0.26458333,0,97)"
         d="M 136.78125 71.763672 L 142.1543 77.136719 L 153.41016 77.136719 L 148.03711 71.763672 L 136.78125 71.763672 z M 368.04492 291.77148 L 368.04492 303.02734 L 373.41797 308.40039 L 373.41797 297.14453 L 368.04492 291.77148 z "
         style="opacity:1;fill:#ff0000;fill-opacity:1;stroke:none;stroke-width:4.50047827;stroke-linejoin:round;stroke-miterlimit:4;stroke-dasharray:none" />
      <path
         id="rect1179"
         transform="matrix(0.26458333,0,0,0.26458333,0,97)"
         d="M 158.24414 71.763672 L 163.61719 77.136719 L 174.87305 77.136719 L 169.5 71.763672 L 158.24414 71.763672 z M 368.04492 270.30859 L 368.04492 281.56445 L 373.41797 286.9375 L 373.41797 275.68164 L 368.04492 270.30859 z "
         style="opacity:1;fill:#ff0000;fill-opacity:1;stroke:none;stroke-width:4.50047827;stroke-linejoin:round;stroke-miterlimit:4;stroke-dasharray:none" />
      <path
         id="rect1181"
         transform="matrix(0.26458333,0,0,0.26458333,0,97)"
         d="M 179.70703 71.763672 L 185.08008 77.136719 L 196.33594 77.136719 L 190.96289 71.763672 L 179.70703 71.763672 z M 368.04492 248.8457 L 368.04492 260.10156 L 373.41797 265.47461 L 373.41797 254.21875 L 368.04492 248.8457 z "
         style="opacity:1;fill:#ff0000;fill-opacity:1;stroke:none;stroke-width:4.50047827;stroke-linejoin:round;stroke-miterlimit:4;stroke-dasharray:none" />
      <path
         id="rect1183"
         transform="matrix(0.26458333,0,0,0.26458333,0,97)"
         d="M 201.16992 71.763672 L 206.54297 77.136719 L 217.80078 77.136719 L 212.42773 71.763672 L 201.16992 71.763672 z M 368.04492 227.38281 L 368.04492 238.63867 L 373.41797 244.01172 L 373.41797 232.75586 L 368.04492 227.38281 z "
         style="opacity:1;fill:#ff0000;fill-opacity:1;stroke:none;stroke-width:4.50047827;stroke-linejoin:round;stroke-miterlimit:4;stroke-dasharray:none" />
      <path
         id="rect1185"
         transform="matrix(0.26458333,0,0,0.26458333,0,97)"
         d="M 222.63477 71.763672 L 228.00781 77.136719 L 239.26367 77.136719 L 233.89062 71.763672 L 222.63477 71.763672 z M 368.04492 205.91797 L 368.04492 217.17578 L 373.41797 222.54883 L 373.41797 211.29102 L 368.04492 205.91797 z "
         style="opacity:1;fill:#ff0000;fill-opacity:1;stroke:none;stroke-width:4.50047827;stroke-linejoin:round;stroke-miterlimit:4;stroke-dasharray:none" />
      <path
         id="rect1187"
         transform="matrix(0.26458333,0,0,0.26458333,0,97)"
         d="M 244.09766 71.763672 L 249.4707 77.136719 L 260.72656 77.136719 L 255.35352 71.763672 L 244.09766 71.763672 z M 368.04492 184.45508 L 368.04492 195.71094 L 373.41797 201.08398 L 373.41797 189.82812 L 368.04492 184.45508 z "
         style="opacity:1;fill:#ff0000;fill-opacity:1;stroke:none;stroke-width:4.50047827;stroke-linejoin:round;stroke-miterlimit:4;stroke-dasharray:none" />
      <path
         id="rect1189"
         transform="matrix(0.26458333,0,0,0.26458333,0,97)"
         d="M 265.56055 71.763672 L 270.93359 77.136719 L 282.18945 77.136719 L 276.81641 71.763672 L 265.56055 71.763672 z M 368.04492 162.99219 L 368.04492 174.24805 L 373.41797 179.62109 L 373.41797 168.36523 L 368.04492 162.99219 z "
         style="opacity:1;fill:#ff0000;fill-opacity:1;stroke:none;stroke-width:4.50047827;stroke-linejoin:round;stroke-miterlimit:4;stroke-dasharray:none" />
      <path
         id="rect1191"
         transform="matrix(0.26458333,0,0,0.26458333,0,97)"
         d="M 287.02344 71.763672 L 292.39648 77.136719 L 303.65234 77.136719 L 298.2793 71.763672 L 287.02344 71.763672 z M 368.04492 141.5293 L 368.04492 152.78516 L 373.41797 158.1582 L 373.41797 146.90234 L 368.04492 141.5293 z "
         style="opacity:1;fill:#ff0000;fill-opacity:1;stroke:none;stroke-width:4.50047827;stroke-linejoin:round;stroke-miterlimit:4;stroke-dasharray:none" />
      <path
         id="rect1193"
         transform="matrix(0.26458333,0,0,0.26458333,0,97)"
         d="M 308.48633 71.763672 L 313.85938 77.136719 L 325.11719 77.136719 L 319.74414 71.763672 L 308.48633 71.763672 z M 368.04492 120.06445 L 368.04492 131.32227 L 373.41797 136.69531 L 373.41797 125.4375 L 368.04492 120.06445 z "
         style="opacity:1;fill:#ff0000;fill-opacity:1;stroke:none;stroke-width:4.50047827;stroke-linejoin:round;stroke-miterlimit:4;stroke-dasharray:none" />
      <path
         id="rect1195"
         transform="matrix(0.26458333,0,0,0.26458333,0,97)"
         d="M 329.95117 71.763672 L 335.32422 77.136719 L 346.58008 77.136719 L 341.20703 71.763672 L 329.95117 71.763672 z M 368.04492 98.601562 L 368.04492 109.85742 L 373.41797 115.23047 L 373.41797 103.97461 L 368.04492 98.601562 z "
         style="opacity:1;fill:#ff0000;fill-opacity:1;stroke:none;stroke-width:4.50047827;stroke-linejoin:round;stroke-miterlimit:4;stroke-dasharray:none" />
      <text
         inkscape:export-ydpi="96"
         inkscape:export-xdpi="96"
         id="text946"
         y="181.42931"
         x="14.862135"
         style="font-style:normal;font-weight:normal;font-size:22.57777786px;line-height:1.25;font-family:sans-serif;letter-spacing:0px;word-spacing:0px;fill:#000000;fill-opacity:1;stroke:none;stroke-width:0.26458332"
         xml:space="preserve"><tspan
           style="font-style:normal;font-variant:normal;font-weight:bold;font-stretch:normal;font-size:9.87777805px;font-family:sans-serif;-inkscape-font-specification:'sans-serif Bold';stroke-width:0.26458332"
           y="181.42931"
           x="14.862135"
           id="tspan944"
           sodipodi:role="line">ANGRY PIXIES</tspan></text>
      <text
         inkscape:export-ydpi="96"
         inkscape:export-xdpi="96"
         xml:space="preserve"
         style="font-style:normal;font-weight:normal;font-size:22.57777786px;line-height:1.25;font-family:sans-serif;letter-spacing:0px;word-spacing:0px;fill:#000000;fill-opacity:1;stroke:none;stroke-width:0.26458332"
         x="29.763212"
         y="128.70166"
         id="text950"><tspan
           sodipodi:role="line"
           id="tspan948"
           x="29.763212"
           y="128.70166"
           style="font-style:normal;font-variant:normal;font-weight:bold;font-stretch:normal;font-size:9.87777805px;font-family:sans-serif;-inkscape-font-specification:'sans-serif Bold';stroke-width:0.26458332">DANGER</tspan></text>
      <path
         inkscape:export-ydpi="96"
         inkscape:export-xdpi="96"
         id="rect1024"
         d="m 22.737991,155.14384 a 2.6375871,8.2696239 0 0 0 -2.637565,8.26978 2.6375871,8.2696239 0 0 0 2.637565,8.26978 2.6375871,8.2696239 0 0 0 0.02326,-0.003 v 0.003 h 59.725031 v -0.0832 a 2.6375871,8.2696239 0 0 1 -2.286167,-8.18658 2.6375871,8.2696239 0 0 1 2.286167,-8.18658 v -0.0832 h -6.248199 l 0.194305,3.49487 2.510957,-1.3751 -0.507979,7.56233 -0.777214,-5.23121 -2.421556,1.46503 -0.378788,-5.91592 h -0.177769 l -3.388939,3.07578 1.88309,1.10639 -4.065387,4.30413 1.584399,-3.58686 -1.733743,-1.43454 2.988964,-3.31814 -0.04909,-0.14676 h -5.906616 l -1.485181,0.20464 0.558104,-0.20464 h -9.560655 c -0.864624,0.5645 -2.164805,0.80845 -3.822507,0.6966 -0.529201,-0.0357 -0.808341,-0.0875 -0.734321,-0.1354 0.0657,-0.0426 0.422346,-0.23188 0.792715,-0.42064 0.0918,-0.0468 0.17277,-0.0938 0.25735,-0.14056 h -3.94188 l 0.0894,0.10077 -0.684194,1.15962 2.859773,0.28525 4.073136,1.11828 -1.336869,1.44125 3.449402,1.26504 -5.216736,-0.71881 1.289328,-1.51464 -2.561604,-0.68006 -0.952394,2.85563 2.988964,3.31815 -1.733227,1.43402 1.584399,3.58738 -4.065384,-4.30413 1.883087,-1.10639 -3.556889,-3.22823 -0.389123,6.06836 -2.42104,-1.46502 -0.777214,5.2312 -0.507979,-7.56233 2.510957,1.37511 0.358119,-6.45697 2.810163,1.94303 0.528651,-2.00452 -2.824633,-0.18397 0.354499,-1.2423 -2.769341,-0.71572 h -8.536429 l 0.182935,3.29437 2.510957,-1.37511 -0.507979,7.56233 -0.777729,-5.23121 -2.421041,1.46503 -0.365869,-5.71541 h -0.411862 l -3.167765,2.87528 1.883089,1.10639 -4.065385,4.30464 1.5844,-3.58737 -1.733744,-1.43454 2.940388,-3.2644 h -7.362341 l -0.02997,0.004 a 2.6375871,8.2696239 0 0 0 -0.02326,-0.004 z m 0.02326,0.004 0.01137,-0.004 h -0.01137 z m 23.435778,-0.004 0.699699,0.0362 c -0.04598,-0.0101 -0.08958,-0.0237 -0.133842,-0.0362 z"
         style="opacity:1;fill:#000000;fill-opacity:1;stroke:none;stroke-width:0.45037365;stroke-linejoin:round;stroke-miterlimit:4;stroke-dasharray:none"
         inkscape:connector-curvature="0" />
      <path
         inkscape:export-ydpi="96"
         inkscape:export-xdpi="96"
         sodipodi:nodetypes="ccccczccc"
         inkscape:connector-curvature="0"
         id="ellipse1026"
         d="m 83.709065,155.12648 c -1.45679,-1.3e-4 -2.63775,3.70261 -2.63767,8.27007 1e-5,4.56728 1.18094,8.26973 2.63767,8.2696 1.13129,-0.005 2.13574,-2.26986 2.49664,-5.63146 h -2.33805 c 0,0 -0.61025,-1.05062 -0.61338,-2.79437 -0.003,-1.74374 0.80094,-2.48239 0.80094,-2.48239 h 2.15002 c -0.36085,-3.36108 -1.36506,-5.6266 -2.49617,-5.63145 z"
         style="opacity:1;fill:#000000;fill-opacity:1;stroke:none;stroke-width:0.2600517;stroke-linejoin:round;stroke-miterlimit:4;stroke-dasharray:none" />
      <ellipse
         inkscape:export-ydpi="96"
         inkscape:export-xdpi="96"
         ry="2.4860678"
         rx="0.58422595"
         cy="163.40361"
         cx="86.127968"
         id="path1044"
         style="opacity:1;fill:#000000;fill-opacity:1;stroke:none;stroke-width:0.42544535;stroke-linejoin:round;stroke-miterlimit:4;stroke-dasharray:none" />
      <path
         inkscape:export-ydpi="96"
         inkscape:export-xdpi="96"
         id="path877"
         d="m 67.940917,132.68733 c -0.0714,0.003 -0.161536,0.27994 -0.264068,0.82217 -0.20575,1.08799 -0.02824,2.20488 0.503846,3.17087 0.617141,1.12044 0.860828,1.74016 0.9617,2.44688 0.11384,0.79768 -0.01966,0.82034 -0.582396,0.0997 -0.61854,-0.79208 -1.524542,-1.55983 -2.026232,-1.71721 -0.24893,-0.0781 -0.496157,-0.1355 -0.549836,-0.12815 -0.0537,0.007 0.06785,0.36713 0.270783,0.79891 0.477591,1.01642 0.771258,2.30592 0.706416,3.10421 -0.0271,0.33405 -0.08026,0.67303 -0.117821,0.75241 -0.0995,0.21057 -0.468271,0.0861 -1.285709,-0.43357 -0.376531,-0.23934 -0.702408,-0.41294 -0.723987,-0.38602 -0.02159,0.0269 0.100984,0.73486 0.272336,1.57354 0.171309,0.8387 0.298373,1.54227 0.282151,1.56322 -0.01619,0.0209 -0.32186,-0.0128 -0.67851,-0.0749 -0.665462,-0.11594 -1.783718,-0.0926 -1.765269,0.0367 0.006,0.0398 0.101542,0.23679 0.212392,0.43873 0.11085,0.20195 0.282392,0.69732 0.38137,1.10071 0.241073,0.98257 0.696262,2.35405 1.007692,3.03392 0.606071,1.32308 2.295941,1.95345 4.786271,1.78542 0.529201,-0.0357 0.808341,-0.0875 0.734322,-0.13539 -0.0657,-0.0426 -0.422347,-0.23189 -0.792716,-0.42065 -1.233061,-0.6284 -1.800431,-1.24245 -2.09858,-2.27169 -0.16284,-0.56208 -0.165348,-0.5616 0.560173,-0.12196 l 0.261483,0.15865 -0.129191,-0.75138 c -0.189661,-1.10263 -0.04563,-1.16879 0.645438,-0.29662 0.650711,0.82122 1.285587,1.47505 1.413867,1.45676 0.14542,-0.0208 -0.08895,-1.31715 -0.340032,-1.88103 -0.35824,-0.80466 -0.562848,-1.64569 -0.405659,-1.66811 0.22461,-0.0321 0.792152,0.29078 1.243851,0.70745 l 0.4346,0.40101 0.120406,-0.41238 c 0.0663,-0.22648 0.112189,-0.79846 0.10232,-1.27176 -0.02511,-1.2045 -0.01947,-1.2196 0.332795,-0.93276 0.492951,0.40144 0.798939,1.18542 0.870747,2.23036 0.0343,0.49917 0.03513,1.08744 0.0011,1.3069 -0.0337,0.21946 -0.03433,0.41773 -0.0011,0.4408 0.0329,0.0231 0.245978,-0.17165 0.473358,-0.43254 0.227359,-0.2609 0.449191,-0.47932 0.492993,-0.48575 0.14233,-0.0203 0.04504,0.74373 -0.156581,1.23093 -0.10814,0.26128 -0.182753,0.48437 -0.165364,0.49558 0.01741,0.0112 0.307424,-0.0615 0.644406,-0.16175 0.336999,-0.10021 0.655145,-0.17519 0.706416,-0.16692 0.22997,0.0389 -0.293124,1.12561 -0.836126,1.73737 l -0.576191,0.64957 0.683678,1.1591 -2.859257,0.28577 -4.073651,1.11776 1.337386,1.44126 -2.891298,1.0604 h 0.927077 l 3.731553,-0.51418 -1.289325,-1.51464 2.561601,-0.68006 0.902787,2.70888 h 2.780707 l 0.16795,-0.15245 0.0098,0.15245 h 1.380276 l -0.16433,-2.96209 -2.809648,1.94303 -0.528651,-2.00453 2.824118,-0.18397 -0.353984,-1.2423 3.558956,-0.91984 -4.646745,0.24081 c 0.296841,-0.065 0.55182,-0.17957 0.838708,-0.3669 1.427001,-0.93176 2.268807,-2.62771 2.463416,-4.96352 0.04,-0.48033 0.04724,-1.07266 0.01654,-1.31672 l -0.05529,-0.44441 -0.394292,0.69039 c -0.49248,0.86267 -1.07097,1.59003 -1.28881,1.62109 -0.120959,0.0173 -0.07313,-0.14827 0.175184,-0.60874 0.187568,-0.34789 0.406728,-0.95151 0.487307,-1.34153 0.135342,-0.65509 0.129106,-0.76661 -0.08526,-1.46037 -0.28502,-0.92258 -0.705848,-1.80553 -0.797367,-1.67277 -0.0373,0.0541 -0.09846,0.30877 -0.135392,0.56534 -0.107091,0.74481 -0.3302,1.32774 -0.616501,1.60972 l -0.265618,0.26149 -0.22634,-1.11983 c -0.388152,-1.92422 -0.907352,-3.28838 -1.445392,-3.7946 -0.163288,-0.15365 -0.168363,-0.0803 -0.04754,0.72347 0.118399,0.78744 0.108511,0.9691 -0.0832,1.50998 -0.119819,0.3381 -0.27456,0.62278 -0.34313,0.63252 -0.0801,0.0115 -0.19559,-0.28949 -0.324011,-0.84232 -0.40707,-1.7525 -0.70213,-2.29009 -1.900658,-3.46026 -1.192311,-1.16408 -1.905844,-2.30187 -2.042253,-3.25768 -0.0281,-0.19717 -0.06413,-0.29385 -0.106971,-0.29197 z m 2.351278,5.61464 c 0.01564,-0.002 0.03188,-0.002 0.04858,0.002 0.0801,0.0148 0.171854,0.0874 0.269234,0.21963 0.411351,0.55891 0.443257,1.3636 0.07235,1.82573 -0.127651,0.15904 -0.163211,0.14283 -0.356053,-0.16382 -0.249057,-0.39606 -0.344212,-0.93192 -0.263032,-1.48208 0.03719,-0.2518 0.119411,-0.38749 0.228928,-0.40101 z"
         style="fill:#000000;stroke-width:0.10386474"
         inkscape:connector-curvature="0" />
      <path
         inkscape:export-ydpi="96"
         inkscape:export-xdpi="96"
         id="path1067"
         d="m 26.194628,132.48682 c -0.0714,0.003 -0.161537,0.28046 -0.264067,0.82269 -0.205749,1.08798 -0.02824,2.20489 0.503846,3.17087 0.61713,1.12044 0.860828,1.73964 0.961698,2.44636 0.11384,0.79768 -0.01965,0.82035 -0.582393,0.0997 -0.61854,-0.79207 -1.524543,-1.55983 -2.026233,-1.71721 -0.24893,-0.0781 -0.496157,-0.13551 -0.549837,-0.12816 -0.0537,0.007 0.06785,0.36715 0.270784,0.79892 0.47759,1.01643 0.771257,2.30643 0.706417,3.10472 -0.0271,0.33405 -0.08026,0.6725 -0.117822,0.75189 -0.0995,0.21056 -0.46827,0.0861 -1.28571,-0.43356 -0.37653,-0.23934 -0.702417,-0.41295 -0.723987,-0.38603 -0.0216,0.0269 0.100985,0.73487 0.272335,1.57355 0.17131,0.83869 0.297857,1.54226 0.281637,1.56321 -0.0162,0.0209 -0.321345,-0.0128 -0.677995,-0.0749 -0.66546,-0.11595 -1.783717,-0.0926 -1.765267,0.0367 0.006,0.0398 0.10154,0.2373 0.21239,0.43925 0.11085,0.20194 0.282392,0.69732 0.381372,1.10071 0.24107,0.98257 0.69626,2.35354 1.00769,3.0334 0.60607,1.32309 2.295425,1.95346 4.785755,1.78543 0.5292,-0.0357 0.808859,-0.0875 0.734839,-0.1354 -0.0657,-0.0426 -0.422864,-0.23188 -0.793233,-0.42064 -1.233061,-0.6284 -1.799914,-1.24247 -2.098064,-2.2717 -0.16284,-0.56208 -0.165347,-0.5616 0.560173,-0.12196 l 0.261483,0.15865 -0.129191,-0.75137 c -0.189661,-1.10262 -0.04563,-1.16879 0.645438,-0.29662 0.65071,0.82122 1.285587,1.47503 1.413867,1.45675 0.14542,-0.0208 -0.08895,-1.31661 -0.340031,-1.8805 -0.35824,-0.80466 -0.56285,-1.6457 -0.40566,-1.66812 0.22461,-0.0321 0.792162,0.29028 1.243852,0.70694 l 0.434599,0.40101 0.120406,-0.41187 c 0.0662,-0.22648 0.112189,-0.79899 0.102319,-1.27227 -0.0251,-1.2045 -0.02,-1.21962 0.33228,-0.93276 0.49295,0.40143 0.799455,1.18543 0.871264,2.23036 0.0343,0.49917 0.03462,1.08743 5.29e-4,1.30689 -0.0337,0.21947 -0.03382,0.41774 -5.29e-4,0.4408 0.0329,0.0231 0.245977,-0.17164 0.473357,-0.43253 0.227359,-0.26091 0.448676,-0.47933 0.492476,-0.48576 0.14233,-0.0203 0.04556,0.74373 -0.156063,1.23094 -0.10814,0.26126 -0.182755,0.48436 -0.165365,0.49557 0.0174,0.0112 0.307426,-0.0615 0.644406,-0.16174 0.337,-0.10022 0.655147,-0.17467 0.706416,-0.1664 0.22996,0.0389 -0.293641,1.1256 -0.836641,1.73736 l -0.575676,0.64905 0.68368,1.15911 -2.859257,0.28577 -4.073653,1.11827 1.336869,1.44074 -3.437516,1.26091 h 0.0186 l 5.186246,-0.71469 -1.28881,-1.51463 2.561601,-0.68007 0.95188,2.85564 -0.04858,0.0537 h 2.559017 l 0.389123,-0.35295 0.02274,0.35295 h 1.378726 l -0.175699,-3.1626 -2.810165,1.94303 -0.528133,-2.00452 2.824117,-0.18397 -0.353983,-1.24179 3.558955,-0.92036 -4.647261,0.24082 c 0.29684,-0.065 0.552335,-0.17957 0.839225,-0.3669 1.427,-0.93177 2.268807,-2.6272 2.463416,-4.96301 v -5.3e-4 c 0.04,-0.48034 0.04724,-1.07265 0.01654,-1.31671 l -0.05529,-0.44391 -0.394292,0.68989 c -0.49248,0.86267 -1.07097,1.59055 -1.28881,1.6216 -0.12096,0.0173 -0.07313,-0.14827 0.175183,-0.60875 0.18756,-0.3479 0.406729,-0.95202 0.48731,-1.34203 0.13534,-0.65509 0.129104,-0.76663 -0.08527,-1.46038 -0.28502,-0.92258 -0.705837,-1.80554 -0.797367,-1.67277 -0.0373,0.0541 -0.09847,0.30877 -0.135393,0.56534 -0.10709,0.74481 -0.33019,1.32774 -0.616499,1.60973 l -0.265617,0.26148 -0.226343,-1.11983 c -0.38815,-1.92422 -0.907867,-3.28838 -1.445907,-3.7946 -0.16329,-0.15365 -0.167845,-0.0803 -0.04703,0.72347 0.11839,0.78744 0.108511,0.96911 -0.0832,1.50999 -0.11983,0.3381 -0.274562,0.62277 -0.343132,0.63251 -0.0801,0.0115 -0.195591,-0.28948 -0.324011,-0.84232 -0.40707,-1.7525 -0.702129,-2.29009 -1.900659,-3.46026 -1.19232,-1.16408 -1.905843,-2.30187 -2.042253,-3.25768 -0.0281,-0.19717 -0.06413,-0.29386 -0.10697,-0.29197 z m 2.351278,5.61465 c 0.01564,-0.002 0.03188,-0.002 0.04858,0.002 0.0801,0.0148 0.171864,0.0879 0.269234,0.22014 0.41136,0.55891 0.443267,1.36359 0.07235,1.82573 -0.12765,0.15904 -0.163211,0.14284 -0.356051,-0.16382 -0.24906,-0.39605 -0.34473,-0.93242 -0.26355,-1.48259 0.03719,-0.2518 0.119928,-0.3875 0.229444,-0.40101 z"
         style="fill:#000000;stroke-width:0.10386474"
         inkscape:connector-curvature="0" />
      <path
         inkscape:export-ydpi="96"
         inkscape:export-xdpi="96"
         id="path1087"
         d="m 53.07309,137.8529 c -0.04266,-0.001 -0.07844,0.0954 -0.106452,0.29198 -0.136411,0.95581 -0.849945,2.0936 -2.042253,3.25768 -1.19853,1.17017 -1.493591,1.70775 -1.90066,3.46025 -0.128419,0.55283 -0.244428,0.85383 -0.324528,0.84233 -0.06857,-0.01 -0.222795,-0.29442 -0.342614,-0.63252 -0.191712,-0.54088 -0.201599,-0.72255 -0.0832,-1.50999 0.120819,-0.80374 0.115747,-0.87712 -0.04754,-0.72347 -0.538041,0.50622 -1.057757,1.87038 -1.445908,3.7946 l -0.225825,1.11983 -0.266134,-0.262 c -0.2863,-0.28198 -0.508894,-0.86439 -0.615984,-1.6092 -0.03693,-0.25657 -0.09809,-0.51124 -0.135393,-0.56534 -0.09152,-0.13276 -0.512347,0.75018 -0.797367,1.67276 -0.214368,0.69376 -0.221122,0.80529 -0.08578,1.46038 0.08058,0.39002 0.299741,0.99363 0.48731,1.34152 0.248311,0.46048 0.296143,0.62605 0.175183,0.60875 -0.217839,-0.0311 -0.795814,-0.75894 -1.288293,-1.62161 l -0.39429,-0.68988 -0.05581,0.4439 c -0.0307,0.24406 -0.02347,0.83639 0.01654,1.31672 v 5.3e-4 c 0.194609,2.3358 1.036415,4.03176 2.463416,4.96352 0.242449,0.15831 0.463918,0.2619 0.705382,0.33021 h 1.293452 l -0.486791,-0.54829 c -0.542999,-0.61176 -1.066096,-1.69846 -0.836126,-1.73736 0.05127,-0.008 0.368901,0.0667 0.7059,0.16692 0.336982,0.10022 0.627005,0.17294 0.644406,0.16174 0.01738,-0.0112 -0.05722,-0.23429 -0.165364,-0.49557 -0.201621,-0.4872 -0.298395,-1.25124 -0.156065,-1.23094 0.0438,0.006 0.265634,0.22485 0.492996,0.48576 0.227377,0.26089 0.440454,0.45563 0.473355,0.43253 0.0333,-0.0231 0.03267,-0.22134 -0.0011,-0.4408 -0.0341,-0.21946 -0.03327,-0.80772 0.0011,-1.30689 0.07181,-1.04494 0.377799,-1.82893 0.870747,-2.23036 0.352282,-0.28685 0.35738,-0.27174 0.332279,0.93276 -0.0099,0.47329 0.03654,1.04528 0.102836,1.27176 l 0.119891,0.41238 0.435115,-0.40153 c 0.451699,-0.41667 1.018725,-0.73903 1.243335,-0.70693 0.157189,0.0224 -0.0469,0.86344 -0.405143,1.66811 -0.251079,0.56388 -0.485452,1.86022 -0.340032,1.88102 0.12828,0.0183 0.76264,-0.63553 1.413351,-1.45675 0.691071,-0.87217 0.835615,-0.80601 0.645957,0.29662 l -0.129191,0.75137 0.260964,-0.15864 c 0.725521,-0.43964 0.723013,-0.44013 0.560173,0.12195 -0.275953,0.95262 -0.789197,1.54931 -1.840714,2.13114 h 3.506763 c 0.434279,-0.28354 0.760611,-0.64646 0.963248,-1.08882 0.31143,-0.67987 0.767138,-2.05136 1.008208,-3.03393 0.09898,-0.40339 0.27052,-0.89875 0.38137,-1.1007 0.110853,-0.20195 0.205875,-0.39945 0.211876,-0.43925 0.01844,-0.1293 -1.099807,-0.15212 -1.765269,-0.0362 -0.35665,0.0621 -0.661794,0.0958 -0.677994,0.0749 -0.01622,-0.0209 0.110844,-0.72451 0.282154,-1.56321 0.171349,-0.83868 0.293418,-1.54665 0.271817,-1.57355 -0.02159,-0.0269 -0.34694,0.14669 -0.723469,0.38603 -0.81744,0.51962 -1.186211,0.64413 -1.285711,0.43356 -0.03756,-0.0794 -0.09072,-0.41836 -0.117821,-0.75241 -0.06484,-0.79829 0.228309,-2.08778 0.7059,-3.1042 0.20293,-0.43178 0.325001,-0.79243 0.271301,-0.79943 -0.05368,-0.007 -0.300908,0.0506 -0.549838,0.12867 -0.50169,0.15738 -1.408208,0.92513 -2.026748,1.71721 -0.562743,0.72061 -0.695717,0.69794 -0.581877,-0.0997 0.10087,-0.70672 0.34404,-1.32644 0.961181,-2.44688 0.53209,-0.96599 0.709594,-2.08287 0.503846,-3.17086 -0.102341,-0.54123 -0.192215,-0.81817 -0.263552,-0.82217 z m -2.351278,5.61465 c 0.109517,0.0135 0.192257,0.1492 0.229444,0.40101 0.08118,0.55016 -0.01397,1.08602 -0.263032,1.48208 -0.192842,0.30665 -0.228402,0.32285 -0.356053,0.16381 -0.370909,-0.46213 -0.339518,-1.26682 0.07183,-1.82573 0.09738,-0.13225 0.189135,-0.20482 0.269235,-0.21962 0.01669,-0.003 0.03293,-0.003 0.04857,-0.002 z m -8.472349,11.47217 0.79013,0.20412 h 3.157432 z"
         style="fill:#000000;stroke-width:0.10386474"
         inkscape:connector-curvature="0" />
    </g>
    <g
       id="g1402"
       transform="translate(0.38284319,-13.061017)">
      <path
         style="opacity:1;fill:#000000;fill-opacity:1;stroke:none;stroke-width:0.45037368;stroke-linejoin:round;stroke-miterlimit:4;stroke-dasharray:none"
         d="m 120.00854,264.6899 a 2.6375872,8.2696241 0 0 0 -2.63767,8.26959 2.6375872,8.2696241 0 0 0 2.63767,8.2696 2.6375872,8.2696241 0 0 0 0.0233,-0.003 v 0.003 h 59.72522 v -0.0831 a 2.6375872,8.2696241 0 0 1 -2.2863,-8.1865 2.6375872,8.2696241 0 0 1 2.2863,-8.1865 v -0.0831 h -59.72522 v 0.004 a 2.6375872,8.2696241 0 0 0 -0.0233,-0.004 z"
         id="path1105"
         inkscape:connector-curvature="0" />
      <path
         style="opacity:1;fill:#000000;fill-opacity:1;stroke:none;stroke-width:0.2600517;stroke-linejoin:round;stroke-miterlimit:4;stroke-dasharray:none"
         d="m 180.9797,264.67233 c -1.45679,-1.3e-4 -2.63775,3.70261 -2.63767,8.27007 1e-5,4.56728 1.18094,8.26973 2.63767,8.2696 1.13129,-0.005 2.13574,-2.26986 2.49664,-5.63146 h -2.33805 c 0,0 -0.61025,-1.05062 -0.61338,-2.79437 -0.003,-1.74374 0.80094,-2.48239 0.80094,-2.48239 h 2.15002 c -0.36085,-3.36108 -1.36506,-5.6266 -2.49617,-5.63145 z"
         id="path1107"
         inkscape:connector-curvature="0"
         sodipodi:nodetypes="ccccczccc" />
      <ellipse
         style="opacity:1;fill:#000000;fill-opacity:1;stroke:none;stroke-width:0.42544535;stroke-linejoin:round;stroke-miterlimit:4;stroke-dasharray:none"
         id="ellipse1109"
         cx="183.39861"
         cy="272.94946"
         rx="0.58422595"
         ry="2.4860678" />
    </g>
    <path
       sodipodi:nodetypes="ccccccccccscccccscssccccccccscccccccccccccccccccccccccccccccccccccccccccccccccccccccccccccccccccsccccs"
       inkscape:connector-curvature="0"
       id="path1111"
       d="m 126.54452,215.38976 c -0.0714,0.003 -0.16147,0.28018 -0.264,0.82241 -0.20575,1.08799 -0.0283,2.20491 0.50379,3.1709 0.61714,1.12044 0.86066,1.74005 0.96153,2.44677 0.11384,0.79768 -0.0194,0.82031 -0.58214,0.0997 -0.61854,-0.79208 -1.52488,-1.56008 -2.02657,-1.71746 -0.24893,-0.0781 -0.49617,-0.13555 -0.54985,-0.1282 -0.0537,0.007 0.0682,0.36736 0.27113,0.79914 0.47759,1.01642 0.77091,2.30612 0.70607,3.10441 -0.0271,0.33405 -0.0802,0.67275 -0.11776,0.75213 -0.0995,0.21057 -0.46839,0.0861 -1.28583,-0.43352 -0.37653,-0.23934 -0.70206,-0.41295 -0.72364,-0.38603 -0.0216,0.0269 0.10073,0.7349 0.27208,1.57358 0.17131,0.8387 0.29827,1.54218 0.28205,1.56313 -0.0162,0.0209 -0.32141,-0.0129 -0.67806,-0.075 -0.66546,-0.11594 -1.78386,-0.0927 -1.76541,0.0366 0.006,0.0398 0.1014,0.23728 0.21225,0.43922 0.11085,0.20195 0.28231,0.69726 0.38129,1.10065 0.24107,0.98257 0.69663,2.3538 1.00806,3.03367 0.60607,1.32308 2.29545,1.95339 4.78578,1.78536 0.5292,-0.0357 0.80858,-0.0874 0.73456,-0.13533 -0.0657,-0.0426 -0.42259,-0.23194 -0.79296,-0.4207 -1.23306,-0.6284 -1.80011,-1.24234 -2.09826,-2.27158 -0.16284,-0.56208 -0.16523,-0.56166 0.56029,-0.12202 l 0.26116,0.15859 -0.12916,-0.75118 c -0.18966,-1.10263 -0.0453,-1.16893 0.64577,-0.29676 0.65071,0.82122 1.28528,1.47505 1.41356,1.45676 0.14542,-0.0208 -0.0889,-1.3169 -0.33998,-1.88078 -0.35824,-0.80467 -0.56269,-1.64566 -0.4055,-1.66808 0.22461,-0.0321 0.79188,0.29036 1.24358,0.70703 l 0.43494,0.40122 0.12013,-0.41215 c 0.0663,-0.22648 0.11243,-0.79877 0.10256,-1.27206 -0.0251,-1.2045 -0.0199,-1.21942 0.33238,-0.93257 0.49295,0.40143 0.79902,1.18533 0.87083,2.23027 0.0343,0.49917 0.0351,1.08727 10e-4,1.30673 -0.0337,0.21946 -0.0343,0.41804 -10e-4,0.44111 0.0329,0.0231 0.24603,-0.17168 0.47341,-0.43257 0.22736,-0.26091 0.44907,-0.47932 0.49287,-0.48575 0.14233,-0.0203 0.0454,0.74356 -0.15622,1.23076 -0.10814,0.26128 -0.18263,0.48451 -0.16524,0.49572 0.0174,0.0112 0.30736,-0.0617 0.64434,-0.16192 0.337,-0.10021 0.6548,-0.17493 0.70607,-0.16666 0.22997,0.0389 -0.29317,1.12563 -0.83617,1.73739 l -0.57597,0.64909 0.68375,1.15952 -2.85941,0.28538 -4.07354,1.11822 1.33711,1.4411 -3.44915,1.26494 5.21646,-0.71889 -1.28916,-1.5147 2.5617,-0.67995 0.95202,2.85561 -2.98903,3.31809 1.73359,1.43446 -1.5845,3.58732 4.06548,-4.30431 -1.88317,-1.10635 3.55693,-3.22835 0.38889,6.06829 2.42114,-1.46484 0.77729,5.23117 0.50807,-7.56257 -2.51089,1.3751 -0.3585,-6.4567 -2.81002,1.94299 -0.52849,-2.00472 2.82428,-0.18376 -0.35422,-1.24215 3.5593,-0.92022 -4.64713,0.24074 c 0.29684,-0.065 0.55213,-0.17924 0.83902,-0.36657 1.427,-0.93176 2.26879,-2.62756 2.4634,-4.96337 v -4.8e-4 c 0.04,-0.48033 0.0473,-1.07264 0.0166,-1.3167 l -0.0556,-0.44396 -0.39411,0.68992 c -0.49248,0.86267 -1.07084,1.59048 -1.28868,1.62154 -0.12096,0.0173 -0.0731,-0.14825 0.17521,-0.60873 0.18757,-0.34789 0.40659,-0.95185 0.48717,-1.34187 0.13534,-0.65509 0.12887,-0.76633 -0.0855,-1.46009 -0.28502,-0.92258 -0.70571,-1.80558 -0.79723,-1.67282 -0.0373,0.0541 -0.0984,0.30848 -0.13533,0.56505 -0.10709,0.74481 -0.33002,1.32768 -0.61632,1.60966 l -0.26591,0.26163 -0.22602,-1.11964 c -0.38815,-1.92422 -0.90781,-3.2886 -1.44585,-3.79482 -0.16329,-0.15365 -0.16832,-0.0801 -0.0475,0.72364 0.1184,0.78744 0.10861,0.96907 -0.0831,1.50995 -0.11982,0.3381 -0.27426,0.62273 -0.34283,0.63247 -0.0801,0.0115 -0.19589,-0.28951 -0.32431,-0.84234 -0.40707,-1.7525 -0.7022,-2.2899 -1.90073,-3.46007 -1.19231,-1.16408 -1.90582,-2.30198 -2.04223,-3.25779 -0.0281,-0.19717 -0.064,-0.2939 -0.10684,-0.29202 z m 2.39978,5.61626 c 0.0801,0.0148 0.17185,0.0876 0.26923,0.21985 0.41135,0.55891 0.44311,1.36358 0.0722,1.82571 -0.12765,0.15904 -0.16328,0.14284 -0.35612,-0.16381 -0.24906,-0.39606 -0.34424,-0.93225 -0.26306,-1.48241 0.0425,-0.28778 0.14424,-0.42393 0.27778,-0.39934 z"
       style="fill:#0000ff;stroke-width:0.10386475" />
    <g
       id="g1412"
       transform="translate(0,-109.5375)">
      <rect
         ry="4.4160657"
         y="226.24486"
         x="105.993"
         height="70.044022"
         width="89.367699"
         id="rect1095"
         style="opacity:1;fill:#ffffff;fill-opacity:1;stroke:none;stroke-width:1.42224574;stroke-linejoin:round;stroke-miterlimit:4;stroke-dasharray:none" />
      <text
         xml:space="preserve"
         style="font-style:normal;font-weight:normal;font-size:22.57777786px;line-height:1.25;font-family:sans-serif;letter-spacing:0px;word-spacing:0px;fill:#000000;fill-opacity:1;stroke:none;stroke-width:0.26458332"
         x="112.13277"
         y="290.97516"
         id="text1099"><tspan
           sodipodi:role="line"
           id="tspan1097"
           x="112.13277"
           y="290.97516"
           style="font-style:normal;font-variant:normal;font-weight:bold;font-stretch:normal;font-size:9.87777805px;font-family:sans-serif;-inkscape-font-specification:'sans-serif Bold';stroke-width:0.26458332">ANGRY PIXIES</tspan></text>
      <text
         id="text1103"
         y="238.24751"
         x="127.03384"
         style="font-style:normal;font-weight:normal;font-size:22.57777786px;line-height:1.25;font-family:sans-serif;letter-spacing:0px;word-spacing:0px;fill:#000000;fill-opacity:1;stroke:none;stroke-width:0.26458332"
         xml:space="preserve"><tspan
           style="font-style:normal;font-variant:normal;font-weight:bold;font-stretch:normal;font-size:9.87777805px;font-family:sans-serif;-inkscape-font-specification:'sans-serif Bold';stroke-width:0.26458332"
           y="238.24751"
           x="127.03384"
           id="tspan1101"
           sodipodi:role="line">DANGER</tspan></text>
      <path
         style="color:#000000;font-style:normal;font-variant:normal;font-weight:normal;font-stretch:normal;font-size:medium;line-height:normal;font-family:sans-serif;font-variant-ligatures:normal;font-variant-position:normal;font-variant-caps:normal;font-variant-numeric:normal;font-variant-alternates:normal;font-feature-settings:normal;text-indent:0;text-align:start;text-decoration:none;text-decoration-line:none;text-decoration-style:solid;text-decoration-color:#000000;letter-spacing:normal;word-spacing:normal;text-transform:none;writing-mode:lr-tb;direction:ltr;text-orientation:mixed;dominant-baseline:auto;baseline-shift:baseline;text-anchor:start;white-space:normal;shape-padding:0;clip-rule:nonzero;display:inline;overflow:visible;visibility:visible;opacity:1;isolation:auto;mix-blend-mode:normal;color-interpolation:sRGB;color-interpolation-filters:linearRGB;solid-color:#000000;solid-opacity:1;vector-effect:none;fill:#000000;fill-opacity:1;fill-rule:nonzero;stroke:none;stroke-width:1.42224574;stroke-linecap:butt;stroke-linejoin:round;stroke-miterlimit:4;stroke-dasharray:none;stroke-dashoffset:0;stroke-opacity:1;color-rendering:auto;image-rendering:auto;shape-rendering:auto;text-rendering:auto;enable-background:accumulate"
         d="m 110.40883,225.5332 c -2.82816,0 -5.12695,2.29879 -5.12695,5.12696 v 61.21289 c 0,2.82816 2.29879,5.12695 5.12695,5.12695 h 80.53516 c 2.82816,0 5.12695,-2.29879 5.12695,-5.12695 v -61.21289 c 0,-2.82817 -2.29879,-5.12696 -5.12695,-5.12696 z m 0,1.42188 h 80.53516 c 2.06483,0 3.70507,1.64024 3.70507,3.70508 v 61.21289 c 0,2.06484 -1.64024,3.70507 -3.70507,3.70507 h -80.53516 c -2.06484,0 -3.70508,-1.64023 -3.70508,-3.70507 v -61.21289 c 0,-2.06484 1.64024,-3.70508 3.70508,-3.70508 z"
         id="path1115"
         inkscape:connector-curvature="0" />
    </g>
    <g
       id="g1397"
       transform="translate(-99.632351,-24.441319)">
      <rect
         style="opacity:1;fill:#ffffff;fill-opacity:1;stroke:none;stroke-width:1.42224574;stroke-linejoin:round;stroke-miterlimit:4;stroke-dasharray:none"
         id="rect1361"
         width="89.367699"
         height="70.044022"
         x="105.993"
         y="226.24486"
         ry="4.4160657" />
      <text
         id="text1365"
         y="290.97516"
         x="112.13277"
         style="font-style:normal;font-weight:normal;font-size:22.57777786px;line-height:1.25;font-family:sans-serif;letter-spacing:0px;word-spacing:0px;fill:#000000;fill-opacity:1;stroke:none;stroke-width:0.26458332"
         xml:space="preserve"><tspan
           style="font-style:normal;font-variant:normal;font-weight:bold;font-stretch:normal;font-size:9.87777805px;font-family:sans-serif;-inkscape-font-specification:'sans-serif Bold';stroke-width:0.26458332"
           y="290.97516"
           x="112.13277"
           id="tspan1363"
           sodipodi:role="line">ANGRY PIXIES</tspan></text>
      <text
         xml:space="preserve"
         style="font-style:normal;font-weight:normal;font-size:22.57777786px;line-height:1.25;font-family:sans-serif;letter-spacing:0px;word-spacing:0px;fill:#000000;fill-opacity:1;stroke:none;stroke-width:0.26458332"
         x="127.03384"
         y="238.24751"
         id="text1369"><tspan
           sodipodi:role="line"
           id="tspan1367"
           x="127.03384"
           y="238.24751"
           style="font-style:normal;font-variant:normal;font-weight:bold;font-stretch:normal;font-size:9.87777805px;font-family:sans-serif;-inkscape-font-specification:'sans-serif Bold';stroke-width:0.26458332">DANGER</tspan></text>
      <path
         inkscape:connector-curvature="0"
         id="path1371"
         d="m 120.00854,264.6899 a 2.6375872,8.2696241 0 0 0 -2.63767,8.26959 2.6375872,8.2696241 0 0 0 2.63767,8.2696 2.6375872,8.2696241 0 0 0 0.0233,-0.003 v 0.003 h 59.72522 v -0.0831 a 2.6375872,8.2696241 0 0 1 -2.2863,-8.1865 2.6375872,8.2696241 0 0 1 2.2863,-8.1865 v -0.0831 h -59.72522 v 0.004 a 2.6375872,8.2696241 0 0 0 -0.0233,-0.004 z"
         style="opacity:1;fill:#000000;fill-opacity:1;stroke:none;stroke-width:0.45037368;stroke-linejoin:round;stroke-miterlimit:4;stroke-dasharray:none" />
      <path
         sodipodi:nodetypes="ccccczccc"
         inkscape:connector-curvature="0"
         id="path1373"
         d="m 180.9797,264.67233 c -1.45679,-1.3e-4 -2.63775,3.70261 -2.63767,8.27007 1e-5,4.56728 1.18094,8.26973 2.63767,8.2696 1.13129,-0.005 2.13574,-2.26986 2.49664,-5.63146 h -2.33805 c 0,0 -0.61025,-1.05062 -0.61338,-2.79437 -0.003,-1.74374 0.80094,-2.48239 0.80094,-2.48239 h 2.15002 c -0.36085,-3.36108 -1.36506,-5.6266 -2.49617,-5.63145 z"
         style="opacity:1;fill:#000000;fill-opacity:1;stroke:none;stroke-width:0.2600517;stroke-linejoin:round;stroke-miterlimit:4;stroke-dasharray:none" />
      <ellipse
         ry="2.4860678"
         rx="0.58422595"
         cy="272.94946"
         cx="183.39861"
         id="ellipse1375"
         style="opacity:1;fill:#000000;fill-opacity:1;stroke:none;stroke-width:0.42544535;stroke-linejoin:round;stroke-miterlimit:4;stroke-dasharray:none" />
      <path
         sodipodi:nodetypes="ccccccccccscccccscssccccccccscccccccccccccccccccccccccccccccccccccccccccccccccccccccccccccccccccsccccs"
         inkscape:connector-curvature="0"
         id="path1377"
         d="m 165.21168,242.23313 c -0.0714,0.003 -0.16147,0.28018 -0.264,0.82241 -0.20575,1.08799 -0.0283,2.20491 0.50379,3.1709 0.61714,1.12044 0.86066,1.74005 0.96153,2.44677 0.11384,0.79768 -0.0194,0.82031 -0.58214,0.0997 -0.61854,-0.79208 -1.52488,-1.56008 -2.02657,-1.71746 -0.24893,-0.0781 -0.49617,-0.13555 -0.54985,-0.1282 -0.0537,0.007 0.0682,0.36736 0.27113,0.79914 0.47759,1.01642 0.77091,2.30612 0.70607,3.10441 -0.0271,0.33405 -0.0802,0.67275 -0.11776,0.75213 -0.0995,0.21057 -0.46839,0.0861 -1.28583,-0.43352 -0.37653,-0.23934 -0.70206,-0.41295 -0.72364,-0.38603 -0.0216,0.0269 0.10073,0.7349 0.27208,1.57358 0.17131,0.8387 0.29827,1.54218 0.28205,1.56313 -0.0162,0.0209 -0.32141,-0.0129 -0.67806,-0.075 -0.66546,-0.11594 -1.78386,-0.0927 -1.76541,0.0366 0.006,0.0398 0.1014,0.23728 0.21225,0.43922 0.11085,0.20195 0.28231,0.69726 0.38129,1.10065 0.24107,0.98257 0.69663,2.3538 1.00806,3.03367 0.60607,1.32308 2.29545,1.95339 4.78578,1.78536 0.5292,-0.0357 0.80858,-0.0874 0.73456,-0.13533 -0.0657,-0.0426 -0.42259,-0.23194 -0.79296,-0.4207 -1.23306,-0.6284 -1.80011,-1.24234 -2.09826,-2.27158 -0.16284,-0.56208 -0.16523,-0.56166 0.56029,-0.12202 l 0.26116,0.15859 -0.12916,-0.75118 c -0.18966,-1.10263 -0.0453,-1.16893 0.64577,-0.29676 0.65071,0.82122 1.28528,1.47505 1.41356,1.45676 0.14542,-0.0208 -0.0889,-1.3169 -0.33998,-1.88078 -0.35824,-0.80467 -0.56269,-1.64566 -0.4055,-1.66808 0.22461,-0.0321 0.79188,0.29036 1.24358,0.70703 l 0.43494,0.40122 0.12013,-0.41215 c 0.0663,-0.22648 0.11243,-0.79877 0.10256,-1.27206 -0.0251,-1.2045 -0.0199,-1.21942 0.33238,-0.93257 0.49295,0.40143 0.79902,1.18533 0.87083,2.23027 0.0343,0.49917 0.0351,1.08727 0.001,1.30673 -0.0337,0.21946 -0.0343,0.41804 -0.001,0.44111 0.0329,0.0231 0.24603,-0.17168 0.47341,-0.43257 0.22736,-0.26091 0.44907,-0.47932 0.49287,-0.48575 0.14233,-0.0203 0.0454,0.74356 -0.15622,1.23076 -0.10814,0.26128 -0.18263,0.48451 -0.16524,0.49572 0.0174,0.0112 0.30736,-0.0617 0.64434,-0.16192 0.337,-0.10021 0.6548,-0.17493 0.70607,-0.16666 0.22997,0.0389 -0.29317,1.12563 -0.83617,1.73739 l -0.57597,0.64909 0.68375,1.15952 -2.85941,0.28538 -4.07354,1.11822 1.33711,1.4411 -3.44915,1.26494 5.21646,-0.71889 -1.28916,-1.5147 2.5617,-0.67995 0.95202,2.85561 -2.98903,3.31809 1.73359,1.43446 -1.5845,3.58732 4.06548,-4.30431 -1.88317,-1.10635 3.55693,-3.22835 0.38889,6.06829 2.42114,-1.46484 0.77729,5.23117 0.50807,-7.56257 -2.51089,1.3751 -0.3585,-6.4567 -2.81002,1.94299 -0.52849,-2.00472 2.82428,-0.18376 -0.35422,-1.24215 3.5593,-0.92022 -4.64713,0.24074 c 0.29684,-0.065 0.55213,-0.17924 0.83902,-0.36657 1.427,-0.93176 2.26879,-2.62756 2.4634,-4.96337 v -4.8e-4 c 0.04,-0.48033 0.0473,-1.07264 0.0166,-1.3167 l -0.0556,-0.44396 -0.39411,0.68992 c -0.49248,0.86267 -1.07084,1.59048 -1.28868,1.62154 -0.12096,0.0173 -0.0731,-0.14825 0.17521,-0.60873 0.18757,-0.34789 0.40659,-0.95185 0.48717,-1.34187 0.13534,-0.65509 0.12887,-0.76633 -0.0855,-1.46009 -0.28502,-0.92258 -0.70571,-1.80558 -0.79723,-1.67282 -0.0373,0.0541 -0.0984,0.30848 -0.13533,0.56505 -0.10709,0.74481 -0.33002,1.32768 -0.61632,1.60966 l -0.26591,0.26163 -0.22602,-1.11964 c -0.38815,-1.92422 -0.90781,-3.2886 -1.44585,-3.79482 -0.16329,-0.15365 -0.16832,-0.0801 -0.0475,0.72364 0.1184,0.78744 0.10861,0.96907 -0.0831,1.50995 -0.11982,0.3381 -0.27426,0.62273 -0.34283,0.63247 -0.0801,0.0115 -0.19589,-0.28951 -0.32431,-0.84234 -0.40707,-1.7525 -0.7022,-2.2899 -1.90073,-3.46007 -1.19231,-1.16408 -1.90582,-2.30198 -2.04223,-3.25779 -0.0281,-0.19717 -0.064,-0.2939 -0.10684,-0.29202 z m 2.39978,5.61626 c 0.0801,0.0148 0.17185,0.0876 0.26923,0.21985 0.41135,0.55891 0.44311,1.36358 0.0722,1.82571 -0.12765,0.15904 -0.16328,0.14284 -0.35612,-0.16381 -0.24906,-0.39606 -0.34424,-0.93225 -0.26306,-1.48241 0.0425,-0.28778 0.14424,-0.42393 0.27778,-0.39934 z"
         style="fill:#0000ff;stroke-width:0.10386475" />
      <path
         style="fill:#0000ff;stroke-width:0.10386475"
         d="m 123.46532,242.0327 c -0.0714,0.003 -0.16147,0.28018 -0.264,0.82241 -0.20575,1.08798 -0.0283,2.20491 0.50379,3.17089 0.61713,1.12044 0.86066,1.74006 0.96153,2.44678 0.11384,0.79768 -0.0194,0.82031 -0.58214,0.0997 -0.61854,-0.79207 -1.52488,-1.56007 -2.02657,-1.71745 -0.24893,-0.0781 -0.49617,-0.13556 -0.54985,-0.12821 -0.0537,0.007 0.0682,0.36737 0.27113,0.79914 0.47759,1.01643 0.77091,2.30613 0.70607,3.10442 -0.0271,0.33405 -0.0802,0.67274 -0.11776,0.75213 -0.0995,0.21056 -0.46839,0.0861 -1.28583,-0.43352 -0.37653,-0.23934 -0.70207,-0.41296 -0.72364,-0.38604 -0.0216,0.0269 0.10073,0.73491 0.27208,1.57359 0.17131,0.83869 0.29827,1.54218 0.28205,1.56313 -0.0162,0.0209 -0.32141,-0.0129 -0.67806,-0.075 -0.66546,-0.11595 -1.78386,-0.0927 -1.76541,0.0366 0.006,0.0398 0.1014,0.23727 0.21225,0.43922 0.11085,0.20194 0.28231,0.69726 0.38129,1.10065 0.24107,0.98257 0.69663,2.3538 1.00806,3.03367 0.60607,1.32308 2.29545,1.95338 4.78578,1.78535 0.5292,-0.0357 0.80858,-0.0874 0.73456,-0.13533 -0.0657,-0.0426 -0.42259,-0.23193 -0.79296,-0.42069 -1.23306,-0.6284 -1.80011,-1.24235 -2.09826,-2.27158 -0.16284,-0.56208 -0.16523,-0.56167 0.56029,-0.12203 l 0.26116,0.1586 -0.12916,-0.75119 c -0.18966,-1.10262 -0.0453,-1.16893 0.64577,-0.29676 0.65071,0.82123 1.28528,1.47505 1.41356,1.45677 0.14542,-0.0208 -0.0889,-1.3169 -0.33998,-1.88079 -0.35824,-0.80466 -0.56269,-1.64565 -0.4055,-1.66807 0.22461,-0.0321 0.79188,0.29036 1.24357,0.70702 l 0.43495,0.40123 0.12013,-0.41215 c 0.0662,-0.22648 0.11243,-0.79878 0.10256,-1.27206 -0.0251,-1.2045 -0.0199,-1.21943 0.33238,-0.93257 0.49295,0.40143 0.79902,1.18533 0.87083,2.23026 0.0343,0.49918 0.0351,1.08727 0.001,1.30673 -0.0337,0.21947 -0.0343,0.41805 -0.001,0.44111 0.0329,0.0231 0.24603,-0.17167 0.47341,-0.43256 0.22736,-0.26091 0.44907,-0.47932 0.49287,-0.48575 0.14233,-0.0203 0.0454,0.74356 -0.15622,1.23076 -0.10814,0.26127 -0.18263,0.48451 -0.16524,0.49572 0.0174,0.0112 0.30736,-0.0617 0.64434,-0.16192 0.337,-0.10021 0.6548,-0.17493 0.70607,-0.16666 0.22996,0.0389 -0.29317,1.12563 -0.83617,1.73739 l -0.57597,0.64908 0.68375,1.15953 -2.85941,0.28538 -4.07354,1.11822 1.33711,1.4411 -3.44915,1.26494 5.21646,-0.71889 -1.28916,-1.5147 2.5617,-0.67996 0.95202,2.85561 -2.98903,3.3181 1.73359,1.43446 -1.5845,3.58731 4.06547,-4.30431 -1.88316,-1.10635 3.55693,-3.22835 0.38889,6.0683 2.42114,-1.46484 0.77729,5.23117 0.50807,-7.56257 -2.51089,1.3751 -0.3585,-6.45671 -2.81002,1.943 -0.52849,-2.00472 2.82428,-0.18376 -0.35422,-1.24216 3.5593,-0.92021 -4.64713,0.24073 c 0.29684,-0.065 0.55213,-0.17923 0.83902,-0.36656 1.427,-0.93177 2.26879,-2.62756 2.4634,-4.96337 v -4.8e-4 c 0.04,-0.48034 0.0473,-1.07264 0.0166,-1.3167 l -0.0556,-0.44397 -0.39411,0.68993 c -0.49248,0.86267 -1.07084,1.59048 -1.28868,1.62153 -0.12096,0.0173 -0.0731,-0.14824 0.17521,-0.60872 0.18756,-0.3479 0.40659,-0.95186 0.48717,-1.34187 0.13534,-0.65509 0.12887,-0.76634 -0.0855,-1.46009 -0.28502,-0.92258 -0.70571,-1.80559 -0.79724,-1.67282 -0.0373,0.0541 -0.0984,0.30847 -0.13532,0.56504 -0.10709,0.74481 -0.33002,1.32768 -0.61633,1.60967 l -0.2659,0.26163 -0.22602,-1.11964 c -0.38815,-1.92422 -0.90781,-3.2886 -1.44585,-3.79482 -0.16329,-0.15365 -0.16832,-0.0801 -0.0475,0.72364 0.11839,0.78744 0.10861,0.96907 -0.0831,1.50995 -0.11983,0.3381 -0.27426,0.62273 -0.34283,0.63247 -0.0801,0.0115 -0.19589,-0.28951 -0.32431,-0.84235 -0.40707,-1.7525 -0.7022,-2.28989 -1.90073,-3.46006 -1.19232,-1.16408 -1.90582,-2.30198 -2.04223,-3.25779 -0.0281,-0.19717 -0.064,-0.29391 -0.10684,-0.29202 z m 2.39978,5.61626 c 0.0801,0.0148 0.17185,0.0876 0.26922,0.21984 0.41136,0.55891 0.44312,1.36358 0.0722,1.82572 -0.12765,0.15904 -0.16328,0.14284 -0.35612,-0.16382 -0.24906,-0.39605 -0.34424,-0.93224 -0.26306,-1.48241 0.0425,-0.28777 0.14424,-0.42393 0.27778,-0.39933 z"
         id="path1379"
         inkscape:connector-curvature="0"
         sodipodi:nodetypes="ccccccccccscccccscssccccccccscccccccccccccccccccccccccccccccccccccccccccccccccccccccccccccccccccsccccs" />
      <path
         inkscape:connector-curvature="0"
         id="path1381"
         d="m 110.40883,225.5332 c -2.82816,0 -5.12695,2.29879 -5.12695,5.12696 v 61.21289 c 0,2.82816 2.29879,5.12695 5.12695,5.12695 h 80.53516 c 2.82816,0 5.12695,-2.29879 5.12695,-5.12695 v -61.21289 c 0,-2.82817 -2.29879,-5.12696 -5.12695,-5.12696 z m 0,1.42188 h 80.53516 c 2.06483,0 3.70507,1.64024 3.70507,3.70508 v 61.21289 c 0,2.06484 -1.64024,3.70507 -3.70507,3.70507 h -80.53516 c -2.06484,0 -3.70508,-1.64023 -3.70508,-3.70507 v -61.21289 c 0,-2.06484 1.64024,-3.70508 3.70508,-3.70508 z"
         style="color:#000000;font-style:normal;font-variant:normal;font-weight:normal;font-stretch:normal;font-size:medium;line-height:normal;font-family:sans-serif;font-variant-ligatures:normal;font-variant-position:normal;font-variant-caps:normal;font-variant-numeric:normal;font-variant-alternates:normal;font-feature-settings:normal;text-indent:0;text-align:start;text-decoration:none;text-decoration-line:none;text-decoration-style:solid;text-decoration-color:#000000;letter-spacing:normal;word-spacing:normal;text-transform:none;writing-mode:lr-tb;direction:ltr;text-orientation:mixed;dominant-baseline:auto;baseline-shift:baseline;text-anchor:start;white-space:normal;shape-padding:0;clip-rule:nonzero;display:inline;overflow:visible;visibility:visible;opacity:1;isolation:auto;mix-blend-mode:normal;color-interpolation:sRGB;color-interpolation-filters:linearRGB;solid-color:#000000;solid-opacity:1;vector-effect:none;fill:#000000;fill-opacity:1;fill-rule:nonzero;stroke:none;stroke-width:1.42224574;stroke-linecap:butt;stroke-linejoin:round;stroke-miterlimit:4;stroke-dasharray:none;stroke-dashoffset:0;stroke-opacity:1;color-rendering:auto;image-rendering:auto;shape-rendering:auto;text-rendering:auto;enable-background:accumulate" />
      <path
         style="fill:#0000ff;stroke-width:0.10386475"
         d="m 150.34389,247.39863 c 0.0714,0.003 0.16147,0.28018 0.264,0.82241 0.20575,1.08799 0.0283,2.20491 -0.50379,3.1709 -0.61714,1.12044 -0.86066,1.74005 -0.96153,2.44677 -0.11384,0.79768 0.0194,0.82031 0.58214,0.0997 0.61854,-0.79208 1.52488,-1.56008 2.02657,-1.71746 0.24893,-0.0781 0.49617,-0.13555 0.54985,-0.1282 0.0537,0.007 -0.0682,0.36736 -0.27113,0.79914 -0.47759,1.01642 -0.77091,2.30612 -0.70607,3.10441 0.0271,0.33405 0.0802,0.67275 0.11776,0.75213 0.0995,0.21057 0.46839,0.0861 1.28583,-0.43352 0.37653,-0.23934 0.70206,-0.41295 0.72364,-0.38603 0.0216,0.0269 -0.10073,0.7349 -0.27208,1.57358 -0.17131,0.8387 -0.29827,1.54218 -0.28205,1.56313 0.0162,0.0209 0.32141,-0.0129 0.67806,-0.075 0.66546,-0.11594 1.78386,-0.0927 1.76541,0.0366 -0.006,0.0398 -0.1014,0.23728 -0.21225,0.43922 -0.11085,0.20195 -0.28231,0.69726 -0.38129,1.10065 -0.24107,0.98257 -0.69663,2.3538 -1.00806,3.03367 -0.60607,1.32308 -2.29545,1.95339 -4.78578,1.78536 -0.5292,-0.0357 -0.80858,-0.0874 -0.73456,-0.13533 0.0657,-0.0426 0.42259,-0.23194 0.79296,-0.4207 1.23306,-0.6284 1.80011,-1.24234 2.09826,-2.27158 0.16284,-0.56208 0.16523,-0.56166 -0.56029,-0.12202 l -0.26116,0.15859 0.12916,-0.75118 c 0.18966,-1.10263 0.0453,-1.16893 -0.64577,-0.29676 -0.65071,0.82122 -1.28528,1.47505 -1.41356,1.45676 -0.14542,-0.0208 0.0889,-1.3169 0.33998,-1.88078 0.35824,-0.80467 0.56269,-1.64566 0.4055,-1.66808 -0.22461,-0.0321 -0.79188,0.29036 -1.24358,0.70703 l -0.43494,0.40122 -0.12013,-0.41215 c -0.0663,-0.22648 -0.11243,-0.79877 -0.10256,-1.27206 0.0251,-1.2045 0.0199,-1.21942 -0.33238,-0.93257 -0.49295,0.40143 -0.79902,1.18533 -0.87083,2.23027 -0.0343,0.49917 -0.0351,1.08727 -0.001,1.30673 0.0337,0.21946 0.0343,0.41804 0.001,0.44111 -0.0329,0.0231 -0.24603,-0.17168 -0.47341,-0.43257 -0.22736,-0.26091 -0.44907,-0.47932 -0.49287,-0.48575 -0.14233,-0.0203 -0.0454,0.74356 0.15622,1.23076 0.10814,0.26128 0.18263,0.48451 0.16524,0.49572 -0.0174,0.0112 -0.30736,-0.0617 -0.64434,-0.16192 -0.337,-0.10021 -0.6548,-0.17493 -0.70607,-0.16666 -0.22997,0.0389 0.29317,1.12563 0.83617,1.73739 l 0.57597,0.64909 -0.68375,1.15952 2.85941,0.28538 4.07354,1.11822 -1.33711,1.4411 3.44915,1.26494 -5.21646,-0.71889 1.28916,-1.5147 -2.5617,-0.67995 -0.95202,2.85561 2.98903,3.31809 -1.73359,1.43446 1.5845,3.58732 -4.06548,-4.30431 1.88317,-1.10635 -3.55693,-3.22835 -0.38889,6.06829 -2.42114,-1.46484 -0.77729,5.23117 -0.50807,-7.56257 2.51089,1.3751 0.3585,-6.4567 2.81002,1.94299 0.52849,-2.00472 -2.82428,-0.18376 0.35422,-1.24215 -3.5593,-0.92022 4.64713,0.24074 c -0.29684,-0.065 -0.55213,-0.17924 -0.83902,-0.36657 -1.427,-0.93176 -2.26879,-2.62756 -2.4634,-4.96337 v -4.8e-4 c -0.04,-0.48033 -0.0473,-1.07264 -0.0166,-1.3167 l 0.0556,-0.44396 0.39411,0.68992 c 0.49248,0.86267 1.07084,1.59048 1.28868,1.62154 0.12096,0.0173 0.0731,-0.14825 -0.17521,-0.60873 -0.18757,-0.34789 -0.40659,-0.95185 -0.48717,-1.34187 -0.13534,-0.65509 -0.12887,-0.76633 0.0855,-1.46009 0.28502,-0.92258 0.70571,-1.80558 0.79723,-1.67282 0.0373,0.0541 0.0984,0.30848 0.13533,0.56505 0.10709,0.74481 0.33002,1.32768 0.61632,1.60966 l 0.26591,0.26163 0.22602,-1.11964 c 0.38815,-1.92422 0.90781,-3.2886 1.44585,-3.79482 0.16329,-0.15365 0.16832,-0.0801 0.0475,0.72364 -0.1184,0.78744 -0.10861,0.96907 0.0831,1.50995 0.11982,0.3381 0.27426,0.62273 0.34283,0.63247 0.0801,0.0115 0.19589,-0.28951 0.32431,-0.84234 0.40707,-1.7525 0.7022,-2.2899 1.90073,-3.46007 1.19231,-1.16408 1.90582,-2.30198 2.04223,-3.25779 0.0281,-0.19717 0.064,-0.2939 0.10684,-0.29202 z m -2.39978,5.61626 c -0.0801,0.0148 -0.17185,0.0876 -0.26923,0.21985 -0.41135,0.55891 -0.44311,1.36358 -0.0722,1.82571 0.12765,0.15904 0.16328,0.14284 0.35612,-0.16381 0.24906,-0.39606 0.34424,-0.93225 0.26306,-1.48241 -0.0425,-0.28778 -0.14424,-0.42393 -0.27778,-0.39934 z"
         id="path1383"
         inkscape:connector-curvature="0"
         sodipodi:nodetypes="ccccccccccscccccscssccccccccscccccccccccccccccccccccccccccccccccccccccccccccccccccccccccccccccccsccccs" />
    </g>
  </g>
</svg>
